<?xml version="1.0" encoding="utf-8"?>
<!-- Generator: Adobe Illustrator 21.0.2, SVG Export Plug-In . SVG Version: 6.00 Build 0)  -->
<svg version="1.1" id="adaptive" xmlns="http://www.w3.org/2000/svg" xmlns:xlink="http://www.w3.org/1999/xlink" x="0px" y="0px"
	 viewBox="0 0 128 128" style="enable-background:new 0 0 128 128;" xml:space="preserve">
<style type="text/css">
	.st0{fill:#FBD000;}
	.st1{fill:#F4B10B;}
	.st2{fill:#FFFFFF;}
	.st3{fill:#EAEAEA;}
	.st4{fill:#663210;}
	.st5{fill:#D4D6D6;}
	.st6{fill:#75B600;}
	.st7{fill:#28A5C6;}
	.st8{fill:#FF4848;}
	.st9{fill:#92C438;}
	.st10{fill:#F74541;}
</style>
<g>
	<circle class="st0" cx="64" cy="64" r="64"/>
	<path class="st1" d="M118,29.8c0-0.1-0.1-0.1-0.1-0.2H10c-0.4,0.6-0.7,1.1-1.1,1.7v65.4c3.9,6.6,9,12.5,14.9,17.2H104
		c5.8-4.6,10.6-10.2,14.5-16.5L118,29.8z"/>
	<path class="st2" d="M118.6,100.2c0,2.2-1.8,4-4,4L12.9,104c-2.2,0-4-1.8-4-4V23.7c0-2.2,1.8-4,4-4h101c2.2,0,4,1.8,4,4
		L118.6,100.2z"/>
	<path class="st3" d="M118.6,35.2H8.9V23.7c0-2.2,1.8-4,4-4h101.7c0.5,0,4,1.8,4,4V35.2z"/>
	<path class="st4" d="M113.9,105h-101c-2.8,0-4.9-2.2-4.9-5V24c0-2.8,2.2-5,5-5h100.9c1.3,0,2.6,0.5,3.6,1.5c1,1,1.5,2.2,1.5,3.5v76
		C119,102.8,116.7,105,113.9,105z M13,21c-1.7,0-3,1.4-3,3v76c0,1.7,1.3,3,2.9,3h101c1.7,0,3.1-1.4,3.1-3V24c0-0.8-0.3-1.5-0.9-2.1
		c-0.6-0.6-1.3-0.9-2.1-0.9H13z"/>
	<polygon class="st5" points="112,30 45,30 45,25 112,25 	"/>
	<path class="st4" d="M117.5,36H8.9c-0.6,0-1-0.4-1-1s0.4-1,1-1h108.6c0.6,0,1,0.4,1,1S118.1,36,117.5,36z"/>
	<rect x="17" y="45" class="st6" width="26" height="47"/>
	<rect x="50" y="45" class="st7" width="25.7" height="47"/>
	<rect x="83.7" y="45.7" class="st8" width="25.7" height="46.6"/>
	<path class="st2" d="M123,92c0,2.2-1.8,4-4,4H69c-2.2,0-4-1.8-4-4V15c0-2.2,1.8-4,4-4h50c2.2,0,4,1.8,4,4V92z"/>
	<path class="st3" d="M123,26.4H65.2V15c0-2.2,1.8-4,4-4H119c0.5,0,4,1.8,4,4V26.4z"/>
	<polygon class="st5" points="117,21 101,21 101.2,16 117,16 	"/>
	<path class="st4" d="M122,27H65.2c-0.6,0-1-0.4-1-1s0.4-1,1-1H122c0.6,0,1,0.4,1,1S122.5,27,122,27z"/>
	<circle class="st9" cx="82.5" cy="18.5" r="2.5"/>
	<circle class="st10" cx="73.5" cy="18.5" r="2.5"/>
	<circle class="st0" cx="91.5" cy="18.5" r="2.5"/>
	<path class="st4" d="M119,97H69c-2.8,0-5-2.2-5-5V15c0-2.8,2.2-5,5-5h50c2.8,0,5,2.2,5,5v77C124,94.8,121.8,97,119,97z M69,12
		c-1.7,0-3,1.3-3,3v77c0,1.7,1.3,3,3,3h50c1.7,0,3-1.3,3-3V15c0-1.7-1.3-3-3-3H69z"/>
	<rect x="71" y="32" class="st6" width="46" height="26"/>
	<rect x="71" y="65" class="st7" width="46" height="26"/>
	<path class="st2" d="M66,124c-2.2,0-4-1.8-4-4c0-2.2,1.8-4,4-4c2.2,0,4,1.8,4,4C70,122.2,68.2,124,66,124z M66,118
		c-1.1,0-2,0.9-2,2c0,1.1,0.9,2,2,2c1.1,0,2-0.9,2-2C68,118.9,67.1,118,66,118z"/>
	<path class="st2" d="M57.7,11c0-0.4-0.4-0.8-1-0.9l-1.9-0.3c-0.5-0.1-1.1-0.6-1.1-1.1l-0.3-1.9c-0.1-0.5-0.5-1-0.9-1
		c-0.4,0-0.8,0.4-0.9,1l-0.3,1.9c-0.1,0.5-0.6,1.1-1.1,1.1l-1.9,0.3c-0.5,0.1-1,0.5-1,0.9c0,0.4,0.4,0.8,1,0.9l1.9,0.3
		c0.5,0.1,1.1,0.6,1.1,1.1l0.3,1.9c0.1,0.5,0.5,1,0.9,1c0.4,0,0.8-0.4,0.8-1l0.3-2.1c0.1-0.5,0.6-1,1.1-1.1l1.8-0.1
		C57.2,11.7,57.7,11.4,57.7,11z"/>
	<circle class="st9" cx="26.5" cy="27.5" r="2.5"/>
	<circle class="st10" cx="17.5" cy="27.5" r="2.5"/>
	<circle class="st0" cx="35.5" cy="27.5" r="2.5"/>
</g>
</svg>
