<?xml version="1.0" encoding="utf-8"?>
<!-- Generator: Adobe Illustrator 21.0.2, SVG Export Plug-In . SVG Version: 6.00 Build 0)  -->
<svg version="1.1" id="bridge" xmlns="http://www.w3.org/2000/svg" xmlns:xlink="http://www.w3.org/1999/xlink" x="0px" y="0px"
	 viewBox="0 0 128 128" style="enable-background:new 0 0 128 128;" xml:space="preserve">
<style type="text/css">
	.st0{fill:#3AD0F9;}
	.st1{fill:#663210;}
	.st2{fill:#FFFFFF;}
	.st3{fill:#FF4848;}
	.st4{fill:#28A5C6;}
	.st5{opacity:0.5;fill:#FFFFFF;}
	.st6{fill:#FBD000;}
</style>
<g>
	<circle class="st0" cx="64" cy="64" r="64"/>
	<path class="st1" d="M63.6,71c-16.4,0-30.8-10.9-35.2-26.4c-0.1-0.5,0.2-1.1,0.7-1.2c0.5-0.2,1.1,0.2,1.2,0.7
		C34.5,58.7,48.2,69,63.6,69c15.4,0,29-10.2,33.2-24.8c0.2-0.5,0.7-0.8,1.2-0.7c0.5,0.2,0.8,0.7,0.7,1.2C94.3,60.2,79.9,71,63.6,71z
		"/>
	<path class="st1" d="M43,80.9c-0.6,0-1-0.4-1-1V63.7c0-0.6,0.4-1,1-1c0.6,0,1,0.4,1,1v16.2C44,80.4,43.6,80.9,43,80.9z"/>
	<path class="st1" d="M85,80.9c-0.6,0-1-0.4-1-1V63.7c0-0.6,0.4-1,1-1c0.6,0,1,0.4,1,1v16.2C86,80.4,85.6,80.9,85,80.9z"/>
	<path class="st1" d="M57,80.9c-0.6,0-1-0.4-1-1v-10c0-0.6,0.4-1,1-1c0.6,0,1,0.4,1,1v10C58,80.4,57.6,80.9,57,80.9z"/>
	<path class="st1" d="M71,80.9c-0.6,0-1-0.4-1-1v-10c0-0.6,0.4-1,1-1c0.6,0,1,0.4,1,1v10C72,80.4,71.6,80.9,71,80.9z"/>
	<path class="st1" d="M29.7,43.6c-0.5-0.1-1.1,0.2-1.2,0.7c-3.7,13.1-15,22.7-28.2,24.6c0.1,0.7,0.1,1.3,0.2,2
		c14.1-2,26-12.2,30-26.1C30.5,44.3,30.2,43.7,29.7,43.6z"/>
	<path class="st1" d="M127.8,69c-13.5-1.8-25.3-11.6-29-25c-0.1-0.5-0.7-0.8-1.2-0.7c-0.5,0.1-0.8,0.7-0.7,1.2
		c4,14.1,16.4,24.5,30.8,26.4C127.7,70.4,127.7,69.7,127.8,69z"/>
	<path class="st1" d="M112,80.9c-0.6,0-1-0.4-1-1V64.5c0-0.6,0.4-1,1-1c0.6,0,1,0.4,1,1v15.4C113,80.4,112.6,80.9,112,80.9z"/>
	<path class="st1" d="M16,80.9c-0.6,0-1-0.4-1-1V63.7c0-0.6,0.4-1,1-1c0.6,0,1,0.4,1,1v16.2C17,80.4,16.6,80.9,16,80.9z"/>
	<path class="st2" d="M96,32c0-1.1-0.6-2-2.3-2H79.8c-1.7,0-2.8,0.7-2.8,1.8c0,1.1-1.4,2.2-2.8,2.2c-1.4,0-2.2,0.9-2.2,2
		s1.1,2,2.7,2h10c1.7,0,3.3-1.1,3.3-2.2c0-1.1,1.1-1.8,2.7-1.8h3C95.4,34,96,33.1,96,32z"/>
	<path class="st2" d="M57,23c0-1.1-1.5-2-2.8-2h-1.9c-1.2,0-2.3-1-2.3-2c0-1-1-2-2.3-2h-13c-1.2,0-2.3,1-2.3,2c0,1-1,2-2.3,2h-2.3
		c-1.2,0-2.1,0.9-2.1,2s0.9,2,2.1,2h6.4c1.2,0,2.5,1.1,2.5,2s-1.3,1.9-2.5,1.9h-1.1c-1.2,0-2.3,0.9-2.3,2c0,1.1,1,2.1,2.3,2.1h6.2
		c1.2,0,2.3-0.9,2.3-1.9c0-1,1-1.1,2.3-1.1h0.8c1.2,0,2.3-2,2.3-3c0-1.2,1-2,2.3-2h4.9C55.5,25,57,24.1,57,23z"/>
	<path class="st3" d="M29.4,98.8c-1.1,0-2-0.9-2-2V44.2c0-1.1,0.9-2,2-2s2,0.9,2,2v52.5C31.4,97.9,30.5,98.8,29.4,98.8z"/>
	<path class="st3" d="M97.9,99.8c-1.1,0-2-0.9-2-2V45.2c0-1.1,0.9-2,2-2s2,0.9,2,2v52.5C99.9,98.9,99,99.8,97.9,99.8z"/>
	<path class="st1" d="M29.4,100.8c-1.6,0-3.4-1.3-3.4-3.1V44.1c0-1.8,1.4-3.1,3-3.1c1.6,0,3,1.2,3,3.1v53.7
		C32,99.6,31,100.8,29.4,100.8z M29.1,43c-0.5,0-1.1,0.6-1.1,1v53.7c0,0.5,0.8,1,1.4,1c0.1,0,0.6,0,0.6-1V44.1
		C30,43.5,29.6,43,29.1,43z"/>
	<path class="st1" d="M97.9,100.8c-1.6,0-2.9-1.3-2.9-3V45c0-1.7,1.3-3,2.9-3c1.7,0,3.1,1.4,3.1,3v52.8
		C101,99.4,99.6,100.8,97.9,100.8z M98,44c-0.6,0-1,0.5-1,1v52.8c0,0.5,0.3,1,0.9,1c0.6,0,1.1-0.5,1.1-1V45C99,44.5,98.6,44,98,44z"
		/>
	<path class="st1" d="M2.2,68.9c-0.6,0-1.2,0.4-1.2,1v5.3c0.3,1.9,0.8,3.8,1.3,5.6c0.5,0,0.7-0.5,0.7-1v-10
		C3,69.3,2.7,68.9,2.2,68.9z"/>
	<path class="st4" d="M64,128c23.6,0,44.3-12.8,55.3-31.9c-1.1-0.5-2.6-0.3-3.4,0.9c-1.1,1.7-3,1.7-4.1,0c-1.1-1.7-3-1.7-4.1,0
		c-1.1,1.7-3,1.7-4.1,0c-1.1-1.7-3-1.7-4.1,0c-1.1,1.7-3,1.7-4.1,0c-1.1-1.7-3-1.7-4.1,0c-1.1,1.7-3,1.7-4.1,0s-3-1.7-4.1,0
		c-1.1,1.7-3,1.7-4.1,0c-1.1-1.7-3-1.7-4.1,0s-3,1.7-4.1,0c-1.1-1.7-3-1.7-4.1,0c-1.1,1.7-3,1.7-4.1,0c-1.1-1.7-3-1.7-4.1,0
		c-1.1,1.7-3,1.7-4.1,0c-1.1-1.7-3-1.7-4.1,0c-1.1,1.7-3,1.7-4.1,0c-1.1-1.7-3-1.7-4.1,0s-3,1.7-4.1,0c-1.1-1.7-3-1.7-4.1,0
		c-1.1,1.7-3,1.7-4.1,0c-1.1-1.7-3-1.7-4.1,0c-1.1,1.7-3,1.7-4.1,0c-1.1-1.7-3-1.7-4.1,0c-1.1,1.7-3,1.7-4.1,0
		c-1-1.4-2.5-1.6-3.7-0.5C20,115.3,40.5,128,64,128z"/>
	<path class="st5" d="M89.7,109c-1.1,0-2.2-0.5-2.9-1.5c-0.7-0.9-1.8-0.9-2.5,0c-0.7,0.9-1.8,1.5-2.9,1.5l0,0
		c-1.1,0-2.2-0.5-2.9-1.5c-0.7-0.9-1.8-0.9-2.5,0c-0.3,0.4-1,0.5-1.4,0.2c-0.5-0.3-0.6-0.8-0.3-1.2c0.7-0.9,1.8-1.5,2.9-1.5
		c1.1,0,2.2,0.5,2.9,1.5c0.4,0.5,0.8,0.7,1.3,0.7l0,0c0.5,0,0.9-0.3,1.3-0.7c0.7-0.9,1.8-1.5,2.9-1.5c1.1,0,2.2,0.5,2.9,1.5
		c0.7,0.9,1.8,0.9,2.5,0c0.7-0.9,1.8-1.5,2.9-1.5c0,0,0,0,0,0c1.1,0,2.2,0.5,2.9,1.5c0.3,0.4,0.2,1-0.3,1.2
		c-0.5,0.3-1.1,0.2-1.4-0.2c-0.7-0.9-1.8-0.9-2.5,0C91.9,108.5,90.8,109,89.7,109C89.7,109,89.7,109,89.7,109z"/>
	<path class="st5" d="M52.1,113c-1.1,0-2.1-0.5-2.8-1.5c-0.7-0.9-1.7-0.9-2.4,0c-0.7,0.9-1.7,1.5-2.8,1.5h0c-1.1,0-2.1-0.5-2.8-1.5
		c-0.3-0.4-0.2-1,0.3-1.2c0.4-0.3,1.1-0.2,1.4,0.2c0.4,0.5,0.8,0.7,1.2,0.7l0,0c0.4,0,0.9-0.3,1.2-0.7c0.7-0.9,1.7-1.5,2.8-1.5
		c1.1,0,2.1,0.5,2.8,1.5c0.7,0.9,1.7,0.9,2.4,0c0.7-0.9,1.7-1.5,2.8-1.5h0c1.1,0,2.1,0.5,2.8,1.5c0.3,0.4,0.2,1-0.2,1.2
		c-0.4,0.3-1.1,0.2-1.4-0.2c-0.7-0.9-1.7-0.9-2.4,0C54.2,112.5,53.2,113,52.1,113L52.1,113z"/>
	<path class="st1" d="M126,69.9c0-0.6-0.4-1-1-1c-0.6,0-1,0.4-1,1v10c0,0.6,0.4,1,1,1c0.1,0,0.3,0,0.4-0.1c0.2-0.8,0.4-1.7,0.6-2.5
		V69.9z"/>
	<path class="st3" d="M2.7,82.5h122.5c0.4-1.3,0.7-2.7,1.1-4H1.7C2,79.8,2.3,81.2,2.7,82.5z"/>
	<path class="st5" d="M72,119C72,119,72,119,72,119c-1.1,0-2.1-0.5-2.8-1.5c-0.7-0.9-1.7-0.9-2.4,0c-0.3,0.4-0.9,0.5-1.4,0.2
		c-0.4-0.3-0.6-0.8-0.2-1.2c0.7-0.9,1.7-1.5,2.8-1.5c1.1,0,2.1,0.5,2.8,1.5c0.3,0.5,0.8,0.7,1.2,0.7l0,0c0.4,0,0.9-0.3,1.2-0.7
		c0.7-0.9,1.7-1.5,2.8-1.5c1.1,0,2.1,0.5,2.8,1.5c0.3,0.4,0.2,1-0.2,1.2c-0.4,0.3-1,0.2-1.4-0.2c-0.7-0.9-1.7-0.9-2.4,0
		C74.1,118.5,73.1,119,72,119z"/>
	<path class="st5" d="M30,106L30,106c-1.1,0-2.1-0.5-2.8-1.5c-0.7-0.9-1.7-0.9-2.4,0c-0.3,0.4-0.9,0.5-1.4,0.2
		c-0.4-0.3-0.6-0.8-0.2-1.2c0.7-0.9,1.7-1.5,2.8-1.5c1.1,0,2.1,0.5,2.8,1.5c0.3,0.5,0.8,0.7,1.2,0.7l0,0c0.4,0,0.9-0.3,1.2-0.7
		c0.7-0.9,1.7-1.5,2.8-1.5c1.1,0,2.1,0.5,2.8,1.5c0.3,0.4,0.2,1-0.2,1.2c-0.4,0.3-1,0.2-1.4-0.2c-0.7-0.9-1.7-0.9-2.4,0
		C32.1,105.5,31.1,106,30,106z"/>
	<path class="st2" d="M70,60c-2.2,0-4-1.8-4-4c0-2.2,1.8-4,4-4c2.2,0,4,1.8,4,4C74,58.2,72.2,60,70,60z M70,54c-1.1,0-2,0.9-2,2
		c0,1.1,0.9,2,2,2c1.1,0,2-0.9,2-2C72,54.9,71.1,54,70,54z"/>
	<path class="st2" d="M54.1,44.3c0-0.4-0.4-0.8-1-0.9l-1.9-0.3c-0.5-0.1-1.1-0.6-1.1-1.1l-0.3-1.9c-0.1-0.5-0.5-1-0.9-1
		c-0.4,0-0.8,0.4-0.9,1L47.8,42c-0.1,0.5-0.6,1.1-1.1,1.1l-1.9,0.3c-0.5,0.1-1,0.5-1,0.9c0,0.4,0.4,0.8,1,0.9l1.9,0.3
		c0.5,0.1,1.1,0.6,1.1,1.1l0.3,1.9c0.1,0.5,0.5,1,0.9,1c0.4,0,0.8-0.4,0.8-1l0.3-2.1c0.1-0.5,0.6-1,1.1-1.1l1.8-0.1
		C53.6,45.1,54.1,44.7,54.1,44.3z"/>
	<path class="st2" d="M116.6,37.8c0-0.4-0.4-0.8-1-0.9l-1.9-0.3c-0.5-0.1-1.1-0.6-1.1-1.1l-0.3-1.9c-0.1-0.5-0.5-1-0.9-1
		c-0.4,0-0.8,0.4-0.9,1l-0.3,1.9c-0.1,0.5-0.6,1.1-1.1,1.1l-1.9,0.3c-0.5,0.1-1,0.5-1,0.9c0,0.4,0.4,0.8,1,0.9l1.9,0.3
		c0.5,0.1,1.1,0.6,1.1,1.1l0.3,1.9c0.1,0.5,0.5,1,0.9,1c0.4,0,0.8-0.4,0.8-1l0.3-2.1c0.1-0.5,0.6-1,1.1-1.1l1.8-0.1
		C116.2,38.6,116.6,38.2,116.6,37.8z"/>
	<path class="st6" d="M112,17.9c0,4.8-4.5,9.1-9.3,9.1S94,22.8,94,17.9c0-4.8,3.9-8.9,8.7-8.9S112,13.1,112,17.9z"/>
	<path class="st1" d="M118,95c-1.1,0-2.2,0.5-2.9,1.5c-0.7,0.9-1.8,0.9-2.5,0c-0.7-0.9-1.8-1.5-2.9-1.5c-1.1,0-2.2,0.5-2.9,1.5
		c-0.7,0.9-1.8,0.9-2.5,0c-0.7-0.9-1.8-1.5-2.9-1.5c-1.1,0-2.2,0.5-2.9,1.5c-0.7,0.9-1.8,0.9-2.5,0c-0.7-0.9-1.8-1.5-2.9-1.5
		c-1.1,0-2.2,0.5-2.9,1.5c-0.7,0.9-1.8,0.9-2.5,0C87.1,95.5,86,95,84.9,95c-1.1,0-2.2,0.5-2.9,1.5c-0.4,0.5-0.8,0.7-1.2,0.7h0
		c-0.4,0-0.9-0.3-1.2-0.7c-0.7-0.9-1.8-1.5-2.9-1.5h0c-1.1,0-2.2,0.5-2.9,1.5c-0.4,0.5-0.8,0.7-1.2,0.7c-0.4,0-0.9-0.3-1.2-0.7
		c-0.7-0.9-1.8-1.5-2.9-1.5c0,0,0,0,0,0c-1.1,0-2.2,0.5-2.9,1.5c-0.7,0.9-1.8,0.9-2.5,0c-0.7-0.9-1.8-1.5-2.9-1.5
		c-1.1,0-2.2,0.5-2.9,1.5c-0.7,0.9-1.8,0.9-2.5,0C54,95.5,52.9,95,51.8,95c-1.1,0-2.2,0.5-2.9,1.5c-0.4,0.5-0.8,0.7-1.2,0.7
		c-0.4,0-0.9-0.3-1.2-0.7c-0.7-0.9-1.8-1.5-2.9-1.5c-1.1,0-2.2,0.5-2.9,1.5c-0.4,0.5-0.8,0.7-1.2,0.7h0c-0.4,0-0.9-0.3-1.2-0.7
		c-0.7-0.9-1.8-1.5-2.9-1.5c-1.1,0-2.2,0.5-2.9,1.5c-0.7,0.9-1.8,0.9-2.5,0C29.2,95.5,28.1,95,27,95c-1.1,0-2.2,0.5-2.9,1.5
		c-0.7,0.9-1.8,0.9-2.5,0c-0.7-0.9-1.8-1.5-2.9-1.5h0c-1.1,0-2.2,0.5-2.9,1.5c-0.4,0.5-0.8,0.7-1.2,0.7c-0.4,0-0.9-0.3-1.2-0.7
		c-0.7-0.9-1.8-1.5-2.9-1.5c-0.8,0-1.5,0.3-2.1,0.7c0.3,0.5,0.7,1.1,1,1.6c0.7-0.7,1.7-0.7,2.3,0.2c0.7,0.9,1.8,1.5,2.9,1.5h0
		c1.1,0,2.2-0.5,2.9-1.5c0.4-0.5,0.8-0.7,1.2-0.7c0.4,0,0.9,0.3,1.2,0.7c0.7,0.9,1.8,1.5,2.9,1.5c1.1,0,2.2-0.5,2.9-1.5
		c0.7-0.9,1.8-0.9,2.5,0C29,98.5,30,99,31.1,99c1.1,0,2.2-0.5,2.9-1.5c0.7-0.9,1.8-0.9,2.5,0c0.7,0.9,1.8,1.5,2.9,1.5h0
		c1.1,0,2.2-0.5,2.9-1.5c0.7-0.9,1.8-0.9,2.5,0c0.7,0.9,1.8,1.5,2.9,1.5c0,0,0,0,0,0c1.1,0,2.2-0.5,2.9-1.5c0.7-0.9,1.8-0.9,2.5,0
		c0.7,0.9,1.8,1.5,2.9,1.5c1.1,0,2.2-0.5,2.9-1.5c0.7-0.9,1.8-0.9,2.5,0c0.7,0.9,1.8,1.5,2.9,1.5c1.1,0,2.2-0.5,2.9-1.5
		c0.4-0.5,0.8-0.7,1.2-0.7c0.4,0,0.9,0.3,1.2,0.7c0.7,0.9,1.8,1.5,2.9,1.5c0,0,0,0,0,0c1.1,0,2.2-0.5,2.9-1.5
		c0.4-0.5,0.8-0.7,1.2-0.7h0c0.4,0,0.9,0.3,1.2,0.7c0.7,0.9,1.8,1.5,2.9,1.5c0,0,0,0,0,0c1.1,0,2.2-0.5,2.9-1.5
		c0.7-0.9,1.8-0.9,2.5,0c0.7,0.9,1.8,1.5,2.9,1.5c1.1,0,2.2-0.5,2.9-1.5c0.7-0.9,1.8-0.9,2.5,0c0.7,0.9,1.8,1.5,2.9,1.5
		c1.1,0,2.2-0.5,2.9-1.5c0.7-0.9,1.8-0.9,2.5,0c0.7,0.9,1.8,1.5,2.9,1.5c1.1,0,2.2-0.5,2.9-1.5c0.7-0.9,1.8-0.9,2.5,0
		c0.7,0.9,1.8,1.5,2.9,1.5c1.1,0,2.2-0.5,2.9-1.5c0.5-0.6,1.4-0.7,2-0.5c0.3-0.5,0.6-1,0.9-1.5C119.2,95.3,118.5,95,118,95z"/>
	<path class="st1" d="M1.8,79h124.4c0.2-0.7,0.3-1.3,0.5-2H1.3C1.5,77.7,1.6,78.3,1.8,79z"/>
	<path class="st1" d="M3.2,84L3.2,84l121.6,0c0.2-0.7,0.4-1.3,0.6-2H2.6C2.8,82.7,3,83.3,3.2,84z"/>
</g>
</svg>
