<?xml version="1.0" encoding="utf-8"?>
<!-- Generator: Adobe Illustrator 21.0.2, SVG Export Plug-In . SVG Version: 6.00 Build 0)  -->
<svg version="1.1" id="game" xmlns="http://www.w3.org/2000/svg" xmlns:xlink="http://www.w3.org/1999/xlink" x="0px" y="0px"
	 viewBox="0 0 128 128" style="enable-background:new 0 0 128 128;" xml:space="preserve">
<style type="text/css">
	.st0{fill:#6AE5E1;}
	.st1{fill:#36535E;}
	.st2{fill:#284049;}
	.st3{fill:#415E6D;}
	.st4{fill:#5F8493;}
	.st5{fill:#71EAA8;}
	.st6{fill:#3AD0F9;}
	.st7{fill:#F74541;}
	.st8{fill:#FBD000;}
	.st9{fill:#FFFFFF;}
	.st10{opacity:0.5;fill:#FFFFFF;}
</style>
<g>
	<circle class="st0" cx="64" cy="64" r="64"/>
	<path class="st1" d="M120.9,59.1c-4-13.9-18.3-22-32.2-18.5l0,0L20,60.2l0,0.1C6.7,64.8-0.9,79.1,3,92.7
		c4,14.2,18.8,22.4,32.9,18.3c11.1-3.2,18.5-12.9,19.3-23.8l18.4-5.2c6.4,8.8,17.8,13.2,28.9,10C116.7,88,124.9,73.3,120.9,59.1z"/>
	<path class="st2" d="M114,24.2c0.7,0.8,1.3,1.7,1.9,2.5c0.8-10.8-5.7-20.2-17.4-24.2C82.3-2.9,62,6.7,55.3,23.3
		c-6.6,16.1-1.2,32.6-1,33.3c0.1,0.4,0.5,0.7,1,0.7c0.1,0,0.2,0,0.3-0.1c0.5-0.2,0.8-0.7,0.6-1.3c-0.1-0.2-5.4-16.5,0.9-31.9
		C62.7,10.4,76.6,3,88.7,3c3.2,0,6.3,0.5,9.2,1.4C107.9,7.8,113.8,15.3,114,24.2z"/>
	<path class="st2" d="M28.6,113c-12.3,0-23.2-8.2-26.6-20.1c-4-14,3.6-28.7,17.3-33.6c0.1-0.1,0.2-0.1,0.3-0.2l68.8-19.6
		c0.1,0,0.2,0,0.3,0c2.1-0.5,4.3-0.8,6.5-0.8c12.3,0,23.2,8.2,26.6,20c2,7.1,1.2,14.6-2.4,21c-3.6,6.4-9.5,11.1-16.6,13.1
		c-2.5,0.7-5.3,1-7.9,1c0,0,0,0,0,0c-8.6,0-16.5-4-21.7-10.9L56.2,88c-1.1,11.3-9,20.8-19.9,23.9C33.8,112.6,31.2,113,28.6,113z
		 M20.6,61c-0.1,0.1-0.2,0.1-0.2,0.1C7.4,65.6,0.3,79.3,4,92.4c3.1,11,13.3,18.6,24.7,18.6c2.4,0,4.7-0.3,7-1
		c10.3-2.9,17.8-12.1,18.6-22.8c0-0.4,0.3-0.8,0.7-0.9L73.4,81c0.4-0.1,0.8,0,1.1,0.4C79.3,88.1,87.1,92,95.3,92c0,0,0,0,0,0
		c2.4,0,4.7-0.3,7-1c6.6-1.9,12.1-6.2,15.4-12.2c3.3-6,4.1-12.9,2.3-19.5c-3.1-10.9-13.3-18.6-24.7-18.6c-2.1,0-4.2,0.3-6.3,0.8
		c-0.1,0-0.2,0-0.2,0L20.6,61z"/>
	<rect x="47" y="41.5" transform="matrix(0.9617 -0.2742 0.2742 0.9617 -10.3772 16.6821)" class="st3" width="15" height="7.9"/>
	<path class="st2" d="M48.4,52.3c-0.2,0-0.3,0-0.5-0.1c-0.2-0.1-0.4-0.3-0.5-0.6L45.2,44c-0.2-0.5,0.2-1.1,0.7-1.2l14.4-4.1
		c0.5-0.1,1.1,0.2,1.2,0.7l2.2,7.6c0.1,0.3,0,0.5-0.1,0.8c-0.1,0.2-0.3,0.4-0.6,0.5l-14.4,4.1C48.6,52.3,48.5,52.3,48.4,52.3z
		 M47.4,44.4l1.6,5.7l12.5-3.6l-1.6-5.7L47.4,44.4z"/>
	<ellipse transform="matrix(0.9617 -0.2742 0.2742 0.9617 -20.852 10.9276)" class="st3" cx="28.7" cy="80.1" rx="26.7" ry="26.7"/>
	
		<ellipse transform="matrix(0.9617 -0.2742 0.2742 0.9617 -13.0913 28.4673)" class="st3" cx="95.3" cy="61.1" rx="26.7" ry="26.7"/>
	
		<rect x="23.5" y="44.3" transform="matrix(0.9617 -0.2742 0.2742 0.9617 -14.7809 18.6333)" class="st3" width="71.5" height="35.7"/>
	<ellipse transform="matrix(0.9617 -0.2742 0.2742 0.9617 -12.7983 26.4578)" class="st3" cx="88.3" cy="59" rx="5.2" ry="5.2"/>
	<path class="st3" d="M67.2,75.9c-0.9,0-1.7-0.6-1.9-1.5c-0.3-1.1,0.3-2.2,1.4-2.5l6.9-2c1.1-0.3,2.2,0.3,2.5,1.4
		c0.3,1.1-0.3,2.2-1.4,2.5l-6.9,2C67.5,75.9,67.3,75.9,67.2,75.9z"/>
	<ellipse transform="matrix(0.9616 -0.2743 0.2743 0.9616 -11.235 30.0253)" class="st3" cx="101.7" cy="55.2" rx="5.2" ry="5.2"/>
	<ellipse transform="matrix(0.9616 -0.2743 0.2743 0.9616 -16.3165 28.0325)" class="st3" cx="92.1" cy="72.3" rx="5.2" ry="5.2"/>
	<ellipse transform="matrix(0.9616 -0.2743 0.2743 0.9616 -14.7441 31.5726)" class="st3" cx="105.5" cy="68.5" rx="5.2" ry="5.2"/>
	<path class="st3" d="M38.4,84.8c1.1-0.3,1.7-1.4,1.4-2.5l-1.4-4.9c-0.3-1.1-1.4-1.7-2.5-1.4l-4.6,1.3c-1.1,0.3-2.2-0.3-2.5-1.4
		l-1.3-4.6c-0.3-1.1-1.4-1.7-2.5-1.4l-4.9,1.4c-1.1,0.3-1.7,1.4-1.4,2.5l1.3,4.6c0.3,1.1-0.3,2.2-1.4,2.5L14,82.3
		c-1.1,0.3-1.7,1.4-1.4,2.5l1.4,4.9c0.3,1.1,1.4,1.7,2.5,1.4l4.6-1.3c1.1-0.3,2.2,0.3,2.5,1.4l1.3,4.6c0.3,1.1,1.4,1.7,2.5,1.4
		l4.9-1.4c1.1-0.3,1.7-1.4,1.4-2.5l-1.3-4.6c-0.3-1.1,0.3-2.2,1.4-2.5L38.4,84.8z"/>
	<path class="st4" d="M38.7,81.9c1.1-0.3,1.7-1.4,1.4-2.5l-1.4-4.9c-0.3-1.1-1.4-1.7-2.5-1.4l-4.6,1.3c-1.1,0.3-2.2-0.3-2.5-1.4
		l-1.3-4.6c-0.3-1.1-1.4-1.7-2.5-1.4l-4.9,1.4c-1.1,0.3-1.7,1.4-1.4,2.5l1.3,4.6c0.3,1.1-0.3,2.2-1.4,2.5l-4.6,1.3
		c-1.1,0.3-1.7,1.4-1.4,2.5l1.4,4.9c0.3,1.1,1.4,1.7,2.5,1.4l4.6-1.3c1.1-0.3,2.2,0.3,2.5,1.4l1.3,4.6c0.3,1.1,1.4,1.7,2.5,1.4
		l4.9-1.4c1.1-0.3,1.7-1.4,1.4-2.5l-1.3-4.6c-0.3-1.1,0.3-2.2,1.4-2.5L38.7,81.9z"/>
	<ellipse transform="matrix(0.9617 -0.2742 0.2742 0.9617 -12.0626 26.3549)" class="st5" cx="88.3" cy="56.3" rx="5.2" ry="5.2"/>
	<ellipse transform="matrix(0.9616 -0.2743 0.2743 0.9616 -10.4987 29.9223)" class="st6" cx="101.7" cy="52.5" rx="5.2" ry="5.2"/>
	<ellipse transform="matrix(0.9616 -0.2743 0.2743 0.9616 -15.5802 27.9295)" class="st7" cx="92.1" cy="69.7" rx="5.2" ry="5.2"/>
	<ellipse transform="matrix(0.9616 -0.2743 0.2743 0.9616 -14.008 31.4697)" class="st8" cx="105.5" cy="65.8" rx="5.2" ry="5.2"/>
	<path class="st4" d="M51.1,78.5c-0.9,0-1.7-0.6-1.9-1.5c-0.3-1.1,0.3-2.2,1.4-2.5l6.9-2c1.1-0.3,2.2,0.3,2.5,1.4
		c0.3,1.1-0.3,2.2-1.4,2.5l-6.9,2C51.5,78.5,51.3,78.5,51.1,78.5z"/>
	<path class="st4" d="M67.2,74c-0.9,0-1.7-0.6-1.9-1.5c-0.3-1.1,0.3-2.2,1.4-2.5l6.9-2c1.1-0.3,2.2,0.3,2.5,1.4
		c0.3,1.1-0.3,2.2-1.4,2.5l-6.9,2C67.5,73.9,67.3,74,67.2,74z"/>
	<path class="st2" d="M28.7,108c-12.3,0-23.2-8.3-26.6-20.3c-4-14.2,3.6-29,17.3-33.9c0.1-0.1,0.2-0.1,0.3-0.2l68.8-19.8
		c0.1,0,0.2,0,0.3,0c2.1-0.5,4.3-0.8,6.5-0.8c12.3,0,23.2,8.3,26.6,20.3c2,7.2,1.2,14.7-2.4,21.2c-3.6,6.5-9.5,11.2-16.6,13.3
		c-2.5,0.7-5,1.1-7.6,1.1c0,0,0,0,0,0c-8.6,0-16.8-4.1-22-11l-17.1,4.9c-1.1,11.4-9,21-20,24.2C33.8,107.6,31.2,108,28.7,108z
		 M20.6,55.5c-0.1,0.1-0.2,0.1-0.2,0.1C7.4,60.1,0.3,73.9,4,87.2C7.1,98.3,17.3,106,28.7,106c2.4,0,4.7-0.3,7.1-1
		c10.4-3,17.8-12.3,18.6-23.1c0-0.4,0.3-0.8,0.7-0.9l18.4-5.3c0.4-0.1,0.8,0,1.1,0.4c4.8,6.7,12.6,10.7,20.8,10.7c0,0,0,0,0,0
		c2.4,0,4.7-0.3,7-1c6.6-1.9,12.1-6.3,15.4-12.3c3.3-6,4.1-13,2.3-19.7C116.9,42.7,106.7,35,95.3,35c-2.1,0-4.2,0.3-6.3,0.8
		c-0.1,0-0.2,0-0.2,0L20.6,55.5z"/>
	<path class="st2" d="M27.2,95L27.2,95c-1.3,0-2.5-0.9-2.9-2.2L23,88.3c-0.1-0.5-0.7-0.8-1.2-0.7l-4.6,1.3C16.9,89,16.6,89,16.4,89
		c-1.3,0-2.5-0.9-2.9-2.2L12.1,82c-0.4-1.6,0.5-3.2,2-3.7l4.6-1.3c0.5-0.1,0.8-0.7,0.7-1.2l-1.3-4.6c-0.4-1.6,0.5-3.2,2-3.7l4.9-1.4
		c0.3-0.1,0.5-0.1,0.8-0.1c1.3,0,2.5,0.9,2.9,2.2l1.3,4.6c0.1,0.5,0.7,0.8,1.2,0.7l4.6-1.3c0.3-0.1,0.5-0.1,0.8-0.1
		c1.3,0,2.5,0.9,2.9,2.2l1.4,4.9c0.4,1.6-0.5,3.2-2,3.7L34.3,84c-0.5,0.1-0.8,0.7-0.7,1.2l1.3,4.6c0.4,1.6-0.5,3.2-2,3.7L28,94.9
		C27.7,95,27.4,95,27.2,95z M22,85.6c1.3,0,2.5,0.9,2.9,2.2l1.3,4.6c0.1,0.4,0.5,0.7,1,0.7l0,0c0.1,0,0.2,0,0.3,0l4.9-1.4
		c0.5-0.1,0.8-0.7,0.7-1.2l-1.3-4.6c-0.4-1.6,0.5-3.2,2-3.7l4.6-1.3c0.5-0.1,0.8-0.7,0.7-1.2l-1.4-4.9c-0.1-0.5-0.7-0.8-1.2-0.7
		l-4.6,1.3c-0.3,0.1-0.5,0.1-0.8,0.1c-1.3,0-2.5-0.9-2.9-2.2l-1.3-4.6c-0.1-0.5-0.7-0.8-1.2-0.7l-4.9,1.4c-0.5,0.1-0.8,0.7-0.7,1.2
		l1.3,4.6c0.4,1.6-0.5,3.2-2,3.7l-4.6,1.3c-0.5,0.1-0.8,0.7-0.7,1.2l1.4,4.9c0.1,0.5,0.7,0.8,1.2,0.7l4.6-1.3
		C21.5,85.6,21.8,85.6,22,85.6z"/>
	<polygon class="st3" points="22.8,72.9 23.5,70 25.6,72.1 	"/>
	<polygon class="st3" points="27.6,89.6 29.7,91.6 30.4,88.8 	"/>
	<polygon class="st3" points="34.5,77 37.4,77.7 35.4,79.8 	"/>
	<polygon class="st3" points="17.8,81.8 15.8,83.9 18.7,84.7 	"/>
	<path class="st2" d="M88,62c-2.6,0-5-1.8-5.7-4.4c-0.4-1.5-0.3-3.2,0.5-4.6c0.8-1.4,2-2.4,3.6-2.9c0.5-0.2,1.1-0.2,1.6-0.2
		c2.6,0,5,1.8,5.7,4.4c0.9,3.2-0.9,6.5-4.1,7.4C89.1,61.9,88.5,62,88,62z M88,51.9c-0.4,0-0.7,0.1-1.1,0.2c-1,0.3-1.9,1-2.4,1.9
		c-0.5,0.9-0.6,2-0.4,3.1c0.5,1.7,2.1,2.9,3.9,2.9c0.4,0,0.7-0.1,1.1-0.2c2.1-0.6,3.4-2.9,2.8-5C91.3,53.2,89.8,51.9,88,51.9z"/>
	<path class="st2" d="M102,58c-2.7,0-5-1.8-5.8-4.4c-0.9-3.2,0.9-6.5,4.1-7.4c0.5-0.2,1.1-0.2,1.6-0.2c2.7,0,5,1.8,5.8,4.4
		c0.9,3.2-0.9,6.5-4.1,7.4C103.1,57.9,102.6,58,102,58z M102,47.9c-0.4,0-0.8,0.1-1.1,0.2c-2.2,0.6-3.4,2.9-2.8,5
		c0.5,1.7,2.1,2.9,3.9,2.9c0.4,0,0.8-0.1,1.1-0.2c2.2-0.6,3.4-2.9,2.8-5C105.4,49.2,103.8,47.9,102,47.9z"/>
	<path class="st2" d="M92,76c-2.7,0-5-1.8-5.8-4.4c-0.4-1.5-0.3-3.2,0.5-4.6c0.8-1.4,2.1-2.4,3.6-2.9c0.5-0.2,1.1-0.2,1.6-0.2
		c2.7,0,5,1.8,5.8,4.4c0.4,1.5,0.3,3.2-0.5,4.6c-0.8,1.4-2.1,2.4-3.6,2.9C93.1,75.9,92.6,76,92,76z M92,65.9c-0.4,0-0.8,0.1-1.1,0.2
		c-1,0.3-1.9,1-2.4,1.9c-0.5,0.9-0.7,2-0.4,3.1c0.5,1.7,2.1,2.9,3.9,2.9c0.4,0,0.8-0.1,1.1-0.2c1-0.3,1.9-1,2.4-1.9
		c0.5-0.9,0.7-2,0.4-3.1C95.4,67.2,93.8,65.9,92,65.9z"/>
	<path class="st2" d="M106,72c-2.7,0-5-1.8-5.8-4.4c-0.4-1.5-0.3-3.2,0.5-4.6c0.8-1.4,2.1-2.4,3.6-2.9c0.5-0.2,1.1-0.2,1.6-0.2
		c2.7,0,5,1.8,5.8,4.4c0.4,1.5,0.3,3.2-0.5,4.6c-0.8,1.4-2.1,2.4-3.6,2.9C107.1,71.9,106.6,72,106,72z M106,61.9
		c-0.4,0-0.8,0.1-1.1,0.2c-1,0.3-1.9,1-2.4,1.9c-0.5,0.9-0.7,2-0.4,3.1c0.5,1.7,2.1,2.9,3.9,2.9c0.4,0,0.7-0.1,1.1-0.2
		c1-0.3,1.9-1,2.4-1.9c0.5-0.9,0.7-2,0.4-3.1C109.4,63.2,107.8,61.9,106,61.9z"/>
	<path class="st2" d="M51,80c-1.3,0-2.5-0.9-2.9-2.2c-0.2-0.8-0.1-1.6,0.3-2.3c0.4-0.7,1-1.2,1.8-1.4l7-2C57.4,72,57.7,72,58,72
		c1.3,0,2.5,0.9,2.9,2.2c0.2,0.8,0.1,1.6-0.3,2.3c-0.4,0.7-1,1.2-1.8,1.4l-7,2C51.6,80,51.3,80,51,80z M58,74c-0.1,0-0.2,0-0.3,0
		l-7,2c-0.3,0.1-0.5,0.2-0.6,0.5C50,76.7,50,77,50.1,77.3c0.1,0.5,0.7,0.8,1.2,0.7l7-2c0.3-0.1,0.5-0.2,0.6-0.5
		c0.1-0.2,0.2-0.5,0.1-0.8C58.8,74.3,58.4,74,58,74z"/>
	<path class="st2" d="M67,75c-1.3,0-2.5-0.9-2.9-2.2c-0.2-0.8-0.1-1.6,0.3-2.3c0.4-0.7,1-1.2,1.8-1.4l7-2C73.4,67,73.7,67,74,67
		c1.3,0,2.5,0.9,2.9,2.2c0.2,0.8,0.1,1.6-0.3,2.3c-0.4,0.7-1,1.2-1.8,1.4l-7,2C67.6,74.9,67.3,75,67,75z M74,69c-0.1,0-0.2,0-0.3,0
		l-7,2c-0.3,0.1-0.5,0.2-0.6,0.5C66,71.7,66,72,66.1,72.2c0.1,0.5,0.7,0.8,1.2,0.7l7-2c0.3-0.1,0.5-0.2,0.6-0.5
		c0.1-0.2,0.2-0.5,0.1-0.8C74.8,69.3,74.4,69,74,69z"/>
	<path class="st9" d="M23,40c-2.2,0-4-1.8-4-4c0-2.2,1.8-4,4-4c2.2,0,4,1.8,4,4C27,38.2,25.2,40,23,40z M23,33.9
		c-1.2,0-2.1,0.9-2.1,2.1c0,1.2,1,2.1,2.1,2.1c1.2,0,2.1-0.9,2.1-2.1C25.1,34.9,24.2,33.9,23,33.9z"/>
	<path class="st9" d="M81,104c-2.2,0-4-1.8-4-4c0-2.2,1.8-4,4-4c2.2,0,4,1.8,4,4C85,102.2,83.2,104,81,104z M81,97.9
		c-1.2,0-2.1,0.9-2.1,2.1c0,1.2,1,2.1,2.1,2.1c1.2,0,2.1-0.9,2.1-2.1C83.1,98.9,82.2,97.9,81,97.9z"/>
	<path class="st9" d="M45.8,19.6c0-0.4-0.4-0.8-1-0.9l-1.9-0.3c-0.5-0.1-1.1-0.6-1.1-1.1l-0.3-1.9c-0.1-0.5-0.5-1-0.9-1
		c-0.4,0-0.8,0.4-0.9,1l-0.3,1.9c-0.1,0.5-0.6,1.1-1.1,1.1l-1.9,0.3c-0.5,0.1-1,0.5-1,0.9s0.4,0.8,1,0.9l1.9,0.3
		c0.5,0.1,1.1,0.6,1.1,1.1l0.3,1.9c0.1,0.5,0.5,1,0.9,1c0.4,0,0.8-0.4,0.9-1l0.3-2.1c0.1-0.5,0.6-1,1.1-1.1l1.8-0.1
		C45.3,20.4,45.8,20,45.8,19.6z"/>
	<path class="st9" d="M86.6,26.9c0-0.4-0.4-0.8-1-0.9l-1.9-0.3c-0.5-0.1-1.1-0.6-1.1-1.1l-0.3-1.9c-0.1-0.5-0.5-1-0.9-1
		s-0.8,0.4-0.9,1l-0.3,1.9c-0.1,0.5-0.6,1.1-1.1,1.1L77.3,26c-0.5,0.1-1,0.5-1,0.9s0.4,0.8,1,0.9l1.9,0.3c0.5,0.1,1.1,0.6,1.1,1.1
		l0.3,1.9c0.1,0.5,0.5,1,0.9,1s0.8-0.4,0.9-1l0.3-2.1c0.1-0.5,0.6-1,1.1-1.1l1.8-0.1C86.2,27.6,86.6,27.2,86.6,26.9z"/>
	<path class="st10" d="M68.1,62.9c-0.6,0-1-0.4-1-0.9c-0.2-7.2,2.7-14.4,8.2-19.6c0.4-0.4,1.1-0.4,1.5,0s0.4,1,0,1.4
		c-5,4.8-7.8,11.5-7.6,18.2C69.1,62.4,68.7,62.8,68.1,62.9C68.1,62.9,68.1,62.9,68.1,62.9z"/>
	<path class="st10" d="M51.9,68c-0.3,0-0.7-0.2-0.9-0.5c-2.3-4.1-5.7-7.5-9.8-9.8c-0.5-0.3-0.7-0.9-0.4-1.4c0.3-0.5,0.9-0.7,1.4-0.4
		c4.5,2.5,8.1,6.1,10.6,10.6c0.3,0.5,0.1,1.1-0.4,1.4C52.2,67.9,52,68,51.9,68z"/>
	<path class="st10" d="M37.9,56c-0.1,0-0.2,0-0.3-0.1c-1.2-0.5-2.5-0.8-3.8-1.1c-0.5-0.1-0.9-0.6-0.8-1.2c0.1-0.5,0.6-0.9,1.2-0.8
		c1.4,0.3,2.8,0.7,4.1,1.2c0.5,0.2,0.8,0.8,0.6,1.3C38.6,55.8,38.3,56,37.9,56z"/>
	<path class="st10" d="M29,78.7c-1.9,0-2.6-0.9-3.2-2.8c-0.2-0.5,0.1-1.1,0.6-1.3c0.5-0.2,1.1,0.1,1.3,0.6c0.5,1.5,0.6,1.7,2.9,1.2
		c0.5-0.1,1.1,0.2,1.2,0.8c0.1,0.5-0.2,1.1-0.8,1.2C30.2,78.6,29.5,78.7,29,78.7z"/>
	<path class="st9" d="M90.5,56.7c-0.4,0-0.8-0.3-1-0.7c-0.1-0.3-0.3-0.6-0.6-0.8c-0.3-0.2-0.7-0.2-1-0.1c-0.5,0.2-1.1-0.2-1.2-0.7
		c-0.2-0.5,0.2-1.1,0.7-1.2c0.9-0.2,1.8-0.1,2.5,0.3c0.8,0.4,1.3,1.1,1.6,2c0.2,0.5-0.2,1.1-0.7,1.2C90.7,56.7,90.6,56.7,90.5,56.7z
		"/>
	<path class="st9" d="M104,52.8c-0.4,0-0.8-0.3-1-0.7c-0.1-0.3-0.3-0.6-0.6-0.8c-0.3-0.2-0.7-0.2-1-0.1c-0.5,0.1-1.1-0.2-1.2-0.7
		c-0.2-0.5,0.2-1.1,0.7-1.2c0.9-0.2,1.8-0.1,2.5,0.3c0.8,0.4,1.3,1.1,1.6,2c0.2,0.5-0.2,1.1-0.7,1.2C104.2,52.8,104.1,52.8,104,52.8
		z"/>
	<path class="st9" d="M94.2,70.2c-0.4,0-0.8-0.3-1-0.7c-0.1-0.3-0.3-0.6-0.6-0.8c-0.3-0.2-0.7-0.2-1-0.1c-0.5,0.2-1.1-0.2-1.2-0.7
		c-0.2-0.5,0.2-1.1,0.7-1.2c0.9-0.2,1.8-0.1,2.5,0.3c0.8,0.4,1.3,1.1,1.6,2c0.2,0.5-0.2,1.1-0.7,1.2C94.4,70.2,94.3,70.2,94.2,70.2z
		"/>
	<path class="st9" d="M107.7,66.3c-0.4,0-0.8-0.3-1-0.7c-0.1-0.3-0.3-0.6-0.6-0.8c-0.3-0.2-0.7-0.2-1-0.1c-0.5,0.2-1.1-0.2-1.2-0.7
		c-0.2-0.5,0.2-1.1,0.7-1.2c0.9-0.2,1.8-0.1,2.5,0.3c0.8,0.4,1.3,1.1,1.6,2c0.2,0.5-0.2,1.1-0.7,1.2
		C107.9,66.3,107.8,66.3,107.7,66.3z"/>
</g>
</svg>
