<?xml version="1.0" encoding="utf-8"?>
<!-- Generator: Adobe Illustrator 21.0.2, SVG Export Plug-In . SVG Version: 6.00 Build 0)  -->
<svg version="1.1" id="blueprint" xmlns="http://www.w3.org/2000/svg" xmlns:xlink="http://www.w3.org/1999/xlink" x="0px" y="0px"
	 viewBox="0 0 128 128" style="enable-background:new 0 0 128 128;" xml:space="preserve">
<style type="text/css">
	.st0{fill:#3AD0F9;}
	.st1{opacity:0.5;fill:#FFFFFF;}
	.st2{fill:#17B2CC;}
	.st3{fill:#FBD000;}
	.st4{fill:#074370;}
	.st5{fill:#FFFFFF;}
	.st6{fill:#EAEAEA;}
	.st7{fill:#28A5C6;}
</style>
<g>
	<ellipse class="st0" cx="64" cy="63.9" rx="64" ry="63.9"/>
	<path class="st1" d="M115.5,102v-4.1h2.8c0.4-0.7,0.8-1.3,1.2-2h-4.1V77.8h11.2c0.2-0.7,0.3-1.3,0.4-2h-11.6V57.8H128
		c-0.1-0.7-0.1-1.3-0.2-2h-12.3V37.7h7.3c-0.3-0.7-0.6-1.3-0.9-2h-6.4V25.2c-0.6-0.9-1.3-1.7-2-2.5v13H95.4V17.6h13.4
		c-0.7-0.7-1.4-1.4-2.2-2H95.4v-8c-0.7-0.4-1.3-0.7-2-1.1v9.1H75.3V0.4c-0.7-0.1-1.3-0.2-2-0.3v15.5H55.3V0c-0.7,0.1-1.3,0.2-2,0.3
		v15.3H35.2V6.2c-0.7,0.3-1.3,0.7-2,1v8.3H21.3c-0.7,0.7-1.5,1.3-2.2,2h14v18.1H15.1V22c-0.7,0.8-1.4,1.6-2,2.5v11.2h-7
		c-0.3,0.7-0.6,1.3-0.9,2h7.9v18.1H0.2c-0.1,0.7-0.2,1.3-0.2,2h13.1v18.1H0.9c0.1,0.7,0.3,1.3,0.4,2h11.8v18.1H8.4
		c0.4,0.7,0.8,1.3,1.2,2h3.4v4.9c0.6,0.8,1.3,1.7,2,2.5v-7.4h18.1V116h-6.4c1,0.7,2,1.4,3,2h3.4v2c0.7,0.4,1.3,0.7,2,1V118h18.1v9
		c0.7,0.1,1.3,0.2,2,0.3V118h18.1v9.2c0.7-0.1,1.3-0.2,2-0.3V118h18.1v2.8c0.7-0.3,1.3-0.7,2-1.1V118h2.8c1-0.6,2-1.3,3-2h-5.8V97.9
		h18.1v6.7C114.2,103.8,114.9,102.9,115.5,102z M33.2,95.9H15.1V77.8h18.1V95.9z M33.2,75.8H15.1V57.8h18.1V75.8z M33.2,55.7H15.1
		V37.7h18.1V55.7z M53.2,116H35.2V97.9h18.1V116z M53.2,95.9H35.2V77.8h18.1V95.9z M53.2,75.8H35.2V57.8h18.1V75.8z M53.2,55.7H35.2
		V37.7h18.1V55.7z M53.2,35.7H35.2V17.6h18.1V35.7z M73.3,116H55.3V97.9h18.1V116z M73.3,95.9H55.3V77.8h18.1V95.9z M73.3,75.8H55.3
		V57.8h18.1V75.8z M73.3,55.7H55.3V37.7h18.1V55.7z M73.3,35.7H55.3V17.6h18.1V35.7z M93.4,116H75.3V97.9h18.1V116z M93.4,95.9H75.3
		V77.8h18.1V95.9z M93.4,75.8H75.3V57.8h18.1V75.8z M93.4,55.7H75.3V37.7h18.1V55.7z M93.4,35.7H75.3V17.6h18.1V35.7z M95.4,37.7
		h18.1v18.1H95.4V37.7z M95.4,57.8h18.1v18.1H95.4V57.8z M95.4,95.9V77.8h18.1v18.1H95.4z"/>
	<path class="st2" d="M109.8,59l-92,48.4c5.6,6,12.3,10.9,19.8,14.5L120,78.4L109.8,59z"/>
	<path class="st2" d="M110,41c0,1.7-1.3,3-3,3H92c-1.7,0-3-1.3-3-3v-5c0-1.7,1.3-3,3-3h15c1.7,0,3,1.3,3,3V41z"/>
	<path class="st2" d="M25.5,22.2l-6.8-2.8c-3.1,3.2-5.9,6.8-8.3,10.6l38.8,16l11.5-1.7L54.2,34L25.5,22.2z"/>
	<rect x="6.5" y="78.5" transform="matrix(0.8849 -0.4657 0.4657 0.8849 -34.3128 40.1029)" class="st3" width="115" height="22"/>
	<path class="st4" d="M18.2,127c-0.1,0-0.2,0-0.3,0c-0.3-0.1-0.5-0.3-0.6-0.5L7.1,107c-0.3-0.5-0.1-1.1,0.4-1.4l101.8-53.6
		c0.2-0.1,0.5-0.2,0.8-0.1c0.3,0.1,0.5,0.3,0.6,0.5L120.9,72c0.3,0.5,0.1,1.1-0.4,1.4L18.7,126.9C18.6,127,18.4,127,18.2,127z
		 M9.3,107l9.3,17.7l100-52.6l-9.3-17.7L9.3,107z"/>
	<path class="st4" d="M25.7,121.9c-0.4,0-0.7-0.2-0.9-0.5l-4.7-8.8c-0.3-0.5-0.1-1.1,0.4-1.4c0.5-0.3,1.1-0.1,1.4,0.4l4.7,8.8
		c0.3,0.5,0.1,1.1-0.4,1.4C26.1,121.9,25.9,121.9,25.7,121.9z"/>
	<path class="st4" d="M39.9,114.5c-0.4,0-0.7-0.2-0.9-0.5l-4.7-8.8c-0.3-0.5-0.1-1.1,0.4-1.4c0.5-0.3,1.1-0.1,1.4,0.4l4.7,8.8
		c0.3,0.5,0.1,1.1-0.4,1.4C40.2,114.4,40,114.5,39.9,114.5z"/>
	<path class="st4" d="M32.8,118.2c-0.4,0-0.7-0.2-0.9-0.5l-2.8-5.2c-0.3-0.5-0.1-1.1,0.4-1.3c0.5-0.3,1.1-0.1,1.4,0.4l2.8,5.2
		c0.3,0.5,0.1,1.1-0.4,1.3C33.1,118.2,33,118.2,32.8,118.2z"/>
	<path class="st4" d="M54.1,107c-0.4,0-0.7-0.2-0.9-0.5l-4.7-8.8c-0.3-0.5-0.1-1.1,0.4-1.4c0.5-0.3,1.1-0.1,1.4,0.4l4.7,8.8
		c0.3,0.5,0.1,1.1-0.4,1.4C54.4,107,54.2,107,54.1,107z"/>
	<path class="st4" d="M47,110.7c-0.4,0-0.7-0.2-0.9-0.5l-2.8-5.3c-0.3-0.5-0.1-1.1,0.4-1.4c0.5-0.3,1.1-0.1,1.4,0.4l2.8,5.3
		c0.3,0.5,0.1,1.1-0.4,1.4C47.3,110.7,47.1,110.7,47,110.7z"/>
	<path class="st4" d="M68.2,99.6c-0.4,0-0.7-0.2-0.9-0.5l-4.7-8.8c-0.3-0.5-0.1-1.1,0.4-1.4c0.5-0.3,1.1-0.1,1.4,0.4l4.7,8.8
		c0.3,0.5,0.1,1.1-0.4,1.4C68.5,99.5,68.4,99.6,68.2,99.6z"/>
	<path class="st4" d="M61.1,103.3c-0.4,0-0.7-0.2-0.9-0.5l-2.8-5.3c-0.3-0.5-0.1-1.1,0.4-1.4c0.5-0.3,1.1-0.1,1.4,0.4l2.8,5.3
		c0.3,0.5,0.1,1.1-0.4,1.4C61.4,103.3,61.3,103.3,61.1,103.3z"/>
	<path class="st4" d="M82.4,92.1c-0.4,0-0.7-0.2-0.9-0.5l-4.7-8.8c-0.3-0.5-0.1-1.1,0.4-1.4c0.5-0.3,1.1-0.1,1.4,0.4l4.7,8.8
		c0.3,0.5,0.1,1.1-0.4,1.4C82.7,92.1,82.5,92.1,82.4,92.1z"/>
	<path class="st4" d="M75.3,95.8c-0.4,0-0.7-0.2-0.9-0.5L71.6,90c-0.3-0.5-0.1-1.1,0.4-1.4c0.5-0.3,1.1-0.1,1.4,0.4l2.8,5.3
		c0.3,0.5,0.1,1.1-0.4,1.4C75.6,95.8,75.4,95.8,75.3,95.8z"/>
	<path class="st4" d="M96.5,84.7c-0.4,0-0.7-0.2-0.9-0.5L91,75.3c-0.3-0.5-0.1-1.1,0.4-1.4c0.5-0.3,1.1-0.1,1.4,0.4l4.7,8.8
		c0.3,0.5,0.1,1.1-0.4,1.4C96.8,84.6,96.7,84.7,96.5,84.7z"/>
	<path class="st4" d="M89.4,88.4c-0.4,0-0.7-0.2-0.9-0.5l-2.8-5.3c-0.3-0.5-0.1-1.1,0.4-1.4c0.5-0.3,1.1-0.1,1.4,0.4l2.8,5.3
		c0.3,0.5,0.1,1.1-0.4,1.4C89.8,88.4,89.6,88.4,89.4,88.4z"/>
	<path class="st4" d="M110.7,77.2c-0.4,0-0.7-0.2-0.9-0.5l-4.7-8.8c-0.3-0.5-0.1-1.1,0.4-1.4c0.5-0.3,1.1-0.1,1.4,0.4l4.7,8.8
		c0.3,0.5,0.1,1.1-0.4,1.4C111,77.2,110.8,77.2,110.7,77.2z"/>
	<path class="st4" d="M103.6,80.9c-0.4,0-0.7-0.2-0.9-0.5l-2.8-5.3c-0.3-0.5-0.1-1.1,0.4-1.4c0.5-0.3,1.1-0.1,1.4,0.4l2.8,5.3
		c0.3,0.5,0.1,1.1-0.4,1.4C103.9,80.9,103.8,80.9,103.6,80.9z"/>
	<path class="st5" d="M95,66.7c-0.4,0-0.7-0.2-0.9-0.5c-0.3-0.5-0.1-1.1,0.4-1.4l12.8-6.7c0.5-0.3,1.1-0.1,1.4,0.4
		c0.3,0.5,0.1,1.1-0.4,1.4l-12.8,6.7C95.3,66.7,95.2,66.7,95,66.7z"/>
	<path class="st5" d="M16,108.3c-0.4,0-0.7-0.2-0.9-0.5c-0.3-0.5-0.1-1.1,0.4-1.4l70-36.8c0.5-0.3,1.1-0.1,1.4,0.4
		c0.3,0.5,0.1,1.1-0.4,1.4l-70,36.8C16.3,108.2,16.2,108.3,16,108.3z"/>
	<polygon class="st6" points="54.2,29.1 60.7,39.4 49.2,41.2 	"/>
	<rect x="24.4" y="4.1" transform="matrix(0.3801 -0.9249 0.9249 0.3801 -5.4636 45.0472)" class="st6" width="13" height="45"/>
	<rect x="10" y="13.7" transform="matrix(0.3801 -0.9249 0.9249 0.3801 -8.9015 28.1343)" class="st7" width="13" height="14"/>
	<path class="st4" d="M49.3,42c-0.1,0-0.3,0-0.4-0.1l-41.3-17c-0.5-0.2-0.7-0.8-0.5-1.3l4.9-12c0.1-0.2,0.3-0.4,0.5-0.5
		c0.2-0.1,0.5-0.1,0.8,0l41.3,17c0.5,0.2,0.7,0.8,0.5,1.3l-4.9,12c-0.1,0.2-0.3,0.4-0.5,0.5C49.5,42,49.4,42,49.3,42z M9.3,23.4
		l39.4,16.3l4.1-10.1L13.4,13.3L9.3,23.4z"/>
	<path class="st4" d="M49.2,42.2c-0.3,0-0.6-0.1-0.8-0.4c-0.2-0.3-0.3-0.7-0.1-1l5-12c0.1-0.3,0.5-0.6,0.9-0.6
		c0.4,0,0.7,0.1,0.9,0.5l6.7,10.3c0.2,0.3,0.2,0.6,0.1,1c-0.1,0.3-0.4,0.5-0.8,0.6l-11.7,1.7C49.3,42.2,49.3,42.2,49.2,42.2z
		 M54.5,31.3l-3.6,8.6l8.4-1.3L54.5,31.3z"/>
	<polygon class="st4" points="56.1,40.1 60.7,39.4 58.1,35.3 	"/>
	<path class="st5" d="M20,20c-0.1,0-0.2,0-0.4-0.1l-5.4-2.1c-0.5-0.2-0.7-0.7-0.5-1.2c0.2-0.5,0.8-0.7,1.3-0.5l5.4,2.1
		c0.5,0.2,0.7,0.7,0.5,1.2C20.8,19.8,20.4,20,20,20z"/>
	<path class="st5" d="M48,31.9c-0.1,0-0.3,0-0.4-0.1l-19.4-8c-0.5-0.2-0.8-0.8-0.5-1.3c0.2-0.5,0.8-0.8,1.3-0.5l19.4,8
		c0.5,0.2,0.8,0.8,0.5,1.3C48.8,31.7,48.4,31.9,48,31.9z"/>
	<path class="st6" d="M110,37c0,1.7-1.3,3-3,3H92c-1.7,0-3-1.3-3-3v-5c0-1.7,1.3-3,3-3h15c1.7,0,3,1.3,3,3V37z"/>
	<path class="st4" d="M107,41H92c-2.2,0-4-1.8-4-4v-5c0-2.2,1.8-4,4-4h15c2.2,0,4,1.8,4,4v5C111,39.2,109.2,41,107,41z M92,30
		c-1.1,0-2,0.9-2,2v5c0,1.1,0.9,2,2,2h15c1.1,0,2-0.9,2-2v-5c0-1.1-0.9-2-2-2H92z"/>
	<path class="st5" d="M105,34H94c-0.6,0-1-0.4-1-1s0.4-1,1-1h11c0.6,0,1,0.4,1,1S105.6,34,105,34z"/>
	<path class="st5" d="M86,112c-2.2,0-4-1.8-4-4c0-2.2,1.8-4,4-4c2.2,0,4,1.8,4,4C90,110.2,88.2,112,86,112z M86,105.9
		c-1.2,0-2.1,1-2.1,2.1c0,1.2,1,2.1,2.1,2.1c1.2,0,2.1-1,2.1-2.1C88.1,106.8,87.2,105.9,86,105.9z"/>
	<path class="st5" d="M82,28c-2.2,0-4-1.8-4-4c0-2.2,1.8-4,4-4s4,1.8,4,4C86,26.2,84.2,28,82,28z M82,21.9c-1.2,0-2.1,1-2.1,2.1
		c0,1.2,1,2.1,2.1,2.1s2.1-1,2.1-2.1C84.1,22.8,83.2,21.9,82,21.9z"/>
	<path class="st5" d="M31,65.9c0-0.4-0.4-0.8-1-0.9l-1.9-0.3c-0.5-0.1-1.1-0.6-1.1-1.1l-0.3-1.9c-0.1-0.5-0.5-1-0.9-1
		s-0.8,0.4-0.9,1l-0.3,1.9c-0.1,0.5-0.6,1.1-1.1,1.1L21.7,65c-0.5,0.1-1,0.5-1,0.9c0,0.4,0.4,0.8,1,0.9l1.9,0.3
		c0.5,0.1,1.1,0.6,1.1,1.1L25,70c0.1,0.5,0.5,1,0.9,1s0.8-0.4,0.9-1l0.3-2.1c0.1-0.5,0.6-1,1.1-1.1l1.8-0.1
		C30.6,66.6,31,66.3,31,65.9z"/>
</g>
</svg>
