<?xml version="1.0" encoding="utf-8"?>
<!-- Generator: Adobe Illustrator 21.0.2, SVG Export Plug-In . SVG Version: 6.00 Build 0)  -->
<svg version="1.1" id="brain" xmlns="http://www.w3.org/2000/svg" xmlns:xlink="http://www.w3.org/1999/xlink" x="0px" y="0px"
	 viewBox="0 0 128 128" style="enable-background:new 0 0 128 128;" xml:space="preserve">
<style type="text/css">
	.st0{fill:#FBD000;}
	.st1{fill:#FFFFFF;}
	.st2{fill:#3AD0F9;}
	.st3{fill:#00B3F9;}
	.st4{fill:#0C508E;}
	.st5{opacity:0.5;fill:#FFFFFF;}
</style>
<g>
	<circle class="st0" cx="63.8" cy="64" r="64"/>
	<path class="st1" d="M16,72c-2.2,0-4-1.8-4-4c0-2.2,1.8-4,4-4c2.2,0,4,1.8,4,4C20,70.2,18.2,72,16,72z M16,65.9
		c-1.2,0-2.1,1-2.1,2.1c0,1.2,0.9,2.1,2.1,2.1c1.2,0,2.1-1,2.1-2.1C18.1,66.8,17.2,65.9,16,65.9z"/>
	<path class="st1" d="M109.9,82.9c-2.2,0-3.9-1.8-3.9-3.9c0-2.2,1.8-3.9,3.9-3.9c2.2,0,3.9,1.8,3.9,3.9
		C113.9,81.1,112.1,82.9,109.9,82.9z M109.9,76.8c-1.2,0-2.1,0.9-2.1,2.1c0,1.2,0.9,2.1,2.1,2.1c1.2,0,2.1-0.9,2.1-2.1
		C112,77.8,111.1,76.8,109.9,76.8z"/>
	<path class="st1" d="M53.9,118.9c-2.2,0-3.9-1.8-3.9-3.9c0-2.2,1.8-3.9,3.9-3.9c2.2,0,3.9,1.8,3.9,3.9
		C57.9,117.1,56.1,118.9,53.9,118.9z M53.9,112.8c-1.2,0-2.1,0.9-2.1,2.1c0,1.2,0.9,2.1,2.1,2.1c1.2,0,2.1-0.9,2.1-2.1
		C56,113.8,55.1,112.8,53.9,112.8z"/>
	<path class="st1" d="M47.7,17.1c-2.4,0-4.3-1.9-4.3-4.3c0-2.4,1.9-4.3,4.3-4.3c2.4,0,4.3,1.9,4.3,4.3C51.9,15.2,50,17.1,47.7,17.1z
		 M47.7,10.6c-1.3,0-2.3,1-2.3,2.3c0,1.3,1,2.3,2.3,2.3c1.3,0,2.3-1,2.3-2.3C49.9,11.6,48.9,10.6,47.7,10.6z"/>
	<path class="st1" d="M96.2,34.1c0-0.4,0.4-0.8,1-0.9L99,33c0.5-0.1,1.1-0.6,1.1-1.1l0.3-1.9c0.1-0.5,0.5-1,0.9-1
		c0.4,0,0.8,0.4,0.9,1l0.3,1.9c0.1,0.5,0.6,1.1,1.1,1.1l1.9,0.3c0.5,0.1,1,0.5,1,0.9c0,0.4-0.4,0.8-1,0.9l-1.9,0.3
		c-0.5,0.1-1.1,0.6-1.1,1.1l-0.3,1.9c-0.1,0.5-0.5,1-0.9,1c-0.4,0-0.8-0.4-0.9-1l-0.3-2.1c-0.1-0.5-0.6-1-1.1-1.1l-1.8-0.1
		C96.6,34.9,96.2,34.5,96.2,34.1z"/>
	<path class="st1" d="M18.8,96.5c0-0.4,0.4-0.8,1-0.9l1.9-0.3c0.5-0.1,1.1-0.6,1.1-1.1l0.3-1.9c0.1-0.5,0.5-1,0.9-1s0.8,0.4,0.9,1
		l0.3,1.9c0.1,0.5,0.6,1.1,1.1,1.1l1.9,0.3c0.5,0.1,1,0.5,1,0.9c0,0.4-0.4,0.8-1,0.9l-1.9,0.3c-0.5,0.1-1.1,0.6-1.1,1.1l-0.3,1.9
		c-0.1,0.5-0.5,1-0.9,1s-0.8-0.4-0.9-1l-0.3-2.1c-0.1-0.5-0.6-1-1.1-1.1l-1.8-0.1C19.3,97.2,18.8,96.9,18.8,96.5z"/>
	<path class="st1" d="M85.2,104.1c0-0.4,0.4-0.8,1-0.9l1.9-0.3c0.5-0.1,1.1-0.6,1.1-1.1l0.3-1.9c0.1-0.5,0.5-1,0.9-1
		c0.4,0,0.8,0.4,0.9,1l0.3,1.9c0.1,0.5,0.6,1.1,1.1,1.1l1.9,0.3c0.5,0.1,1,0.5,1,0.9s-0.4,0.8-1,0.9l-1.9,0.3
		c-0.5,0.1-1.1,0.6-1.1,1.1l-0.3,1.9c-0.1,0.5-0.5,1-0.9,1c-0.4,0-0.8-0.4-0.9-1l-0.3-2.1c-0.1-0.5-0.6-1-1.1-1.1l-1.8-0.1
		C85.7,104.9,85.2,104.5,85.2,104.1z"/>
	<path class="st2" d="M43.3,79.4v14.7c0,1.5,1.2,2.8,2.7,2.8l28.7,10c1.5,0,2.7-1.2,2.7-2.8V88.4c0,0,4.2,0.4,8.2,0
		c4-0.4,7-4.6,7-7.6s0.6-9.5,0.6-9.5l7.1-4.1c1.4-0.8,1.8-2.5,1-3.9c0,0-4.4-7.6-6.9-12c-0.5-0.8-0.9-2.3-1.2-3.6
		c-0.1-1-0.3-1.9-0.5-2.8l0-0.2l0,0c-3.4-14.2-16.3-24.8-31.6-24.8c-18,0-32.5,14.5-32.5,32.5C28.7,63.6,34.5,73.6,43.3,79.4z"/>
	<path class="st3" d="M60.4,79.8c22.1,5.5,31.5,3.2,31.5,3.2s-0.7,6.2-14.8,5.3V96c0,0-8.7-1.8-18.5-6.8s-15.5-9.3-15.5-9.3l0.8-0.4
		c-4.2-2.5-7.5-5.4-9.3-9.1c-5.2-10.5-5.5-12-5.5-12S38.8,74.4,60.4,79.8z"/>
	<path class="st4" d="M75.4,108L75.4,108c-0.2,0-0.5,0-0.7-0.1c-1.7-0.4-27.3-9.4-28.8-10c-1-0.4-3.4-1.3-3.4-3.7V80.1
		C33.4,73.8,28,63.5,28,52.5C28,34,43,19,61.4,19c10.1,0,18.4,3.3,24.5,9.8c6.3,6.7,8.2,14.8,8.1,16.2c-0.1,1.9,0.9,6.4,1.3,7
		c2.4,4.2,7.1,10.7,7.1,10.7c0,0,0,0.1,0.1,0.1c0.5,0.9,0.7,1.9,0.4,2.9c-0.3,1-0.9,1.8-1.8,2.3L94.5,72c0,1.7-0.1,6.6-0.6,9.2
		c-0.7,3.7-3.5,8-7.9,8.4c-1.2,0.1-2.6,0.2-4,0.2c-1.4,0-2.5-0.1-3.3-0.1v14.5c0,0.9-0.3,1.8-0.8,2.5C77.2,107.5,76.4,108,75.4,108z
		 M61.4,21C44.1,21,30,35.1,30,52.5c0,10.6,5.3,20.4,14.2,26.3c0.3,0.2,0.4,0.5,0.4,0.8v14.6c0,0.7,0.6,1.3,2.1,1.8
		c1.4,0.5,26.9,9.6,28.5,9.9c0.1,0,0.2,0,0.3,0l0,0c0.3,0,0.6-0.2,0.8-0.5c0.3-0.4,0.4-0.9,0.4-1.3V88.6c0-0.3,0.1-0.5,0.3-0.7
		c0.2-0.2,0.5-0.3,0.8-0.3c0,0,1.9,0.2,4.2,0.2c1.4,0,2.7-0.1,3.8-0.2c3.6-0.4,5.6-4.3,6.1-6.8c0.6-2.8,0.6-9.3,0.6-9.3
		c0-0.4,0.2-0.7,0.5-0.9l7.1-4.1c0.4-0.2,0.7-0.6,0.9-1.1c0.1-0.5,0.1-1-0.2-1.4c-0.5-0.6-4.8-6.7-7.2-10.9C93,52,91.9,47.2,92,44.9
		c0-0.7-1.4-8.2-7.6-14.8C78.7,24.1,71,21,61.4,21z"/>
	<path class="st1" d="M37.1,43.5c0-4.5,3.7-8.2,8.2-8.2c0.4,0,0.7,0,1.1,0.1c0.8-3.6,4.1-6.3,8-6.3c0.4,0,0.8,0,1.2,0.1
		c1-0.9,2.3-1.4,3.8-1.4c1.1,0,2.1,0.3,3,0.9c1.4-0.6,2.9-1,4.5-1c3.5,0,6.5,1.7,8.4,4.2c0.2,0,0.5-0.1,0.7-0.1
		c2.1,0,3.9,1.6,4.1,3.7c2.4,1.4,4,4,4,7c0,2.5-1.1,4.8-2.9,6.3c0,0.2,0,0.4,0,0.5c0,2.9-2.2,5.3-5,5.7c-1.3,2.8-4.1,4.7-7.4,4.7
		c-1.1,0-2.1-0.2-3-0.6c-0.8,1-1.9,1.6-3.2,1.6c-1.2,0-2.3-0.6-3.1-1.4c-0.9,0.4-1.9,0.6-3,0.6c-0.7,0-1.4-0.1-2.1-0.3
		c-0.4,0.9-0.9,2.2-0.9,3.9c0,3.3-0.9,4-2.2,1.9c-1-1.6-2.1-3.5-2.8-5.4c-0.3,0-0.6,0.1-0.9,0.1c-4.5,0-8.2-3.7-8.2-8.2
		c0-0.8,0.1-1.6,0.4-2.4C38.1,48,37.1,45.9,37.1,43.5z"/>
	<path class="st4" d="M53.7,45.3l0.5,1.8L53,48.3c0.2,0.5,0.5,1,0.8,1.4l1.6-0.4l1.3,1.3l-0.4,1.6c0.5,0.3,0.9,0.6,1.4,0.8l1.2-1.2
		l1.8,0.5l0.4,1.6c0.5,0,1,0,1.5,0l0.1,0l0.4-1.6l1.8-0.5l1.2,1.2c0.5-0.2,1-0.5,1.4-0.8l-0.4-1.6l1.3-1.3l1.6,0.4
		c0.3-0.5,0.6-0.9,0.8-1.4L69.9,47l0.5-1.8l1.6-0.4c0-0.5,0-1.1,0-1.7l-1.6-0.4l-0.5-1.8l1.2-1.2c-0.2-0.5-0.5-1-0.8-1.4l-1.6,0.4
		l-1.3-1.3l0.4-1.6c-0.5-0.3-0.9-0.6-1.4-0.8L65,36.1l-1.8-0.5L62.8,34c-0.5,0-1,0-1.5,0l-0.1,0l-0.4,1.6l-1.8,0.5L57.7,35
		c-0.5,0.2-1,0.5-1.4,0.8l0.4,1.6l-1.3,1.3l-1.6-0.4c-0.3,0.5-0.6,0.9-0.8,1.4l1.2,1.2l-0.5,1.8L52,43.2c0,0.5,0,1.1,0,1.7
		L53.7,45.3z M57.2,42.7c0.7-2.7,3.4-4.2,6.1-3.5c2.7,0.7,4.2,3.5,3.5,6.1c-0.7,2.7-3.4,4.2-6.1,3.5C58.1,48.1,56.5,45.4,57.2,42.7z
		"/>
	<path class="st4" d="M52.6,67.6c-1,0-1.7-0.9-2.1-1.6c-1.1-1.7-2-3.4-2.6-4.9c-0.1,0-0.2,0-0.3,0c-5.1,0-9.2-4.1-9.2-9.2
		c0-0.7,0.1-1.4,0.2-2.1c-1.6-1.7-2.5-3.9-2.5-6.3c0-5.1,4.1-9.2,9.2-9.2c0.1,0,0.2,0,0.4,0c1.2-3.7,4.7-6.3,8.7-6.3
		c0.3,0,0.6,0,0.9,0c2-1.5,4.9-1.8,7.2-0.7c1.4-0.6,2.9-0.9,4.4-0.9c3.5,0,6.7,1.5,8.9,4.2c0.1,0,0.2,0,0.3,0c2.5,0,4.5,1.7,5,4.1
		c2.6,1.7,4.1,4.5,4.1,7.6c0,2.5-1.1,4.9-2.9,6.7c0,0,0,0.1,0,0.1c0,3.2-2.3,5.9-5.3,6.6c-1.6,3-4.7,4.8-8.1,4.8
		c-0.9,0-1.8-0.1-2.7-0.4c-1,0.9-2.2,1.4-3.5,1.4c-1.2,0-2.4-0.5-3.4-1.3c-1.4,0.4-2.8,0.5-4.2,0.3c-0.3,0.9-0.5,1.8-0.5,2.7
		C54.5,64.5,54.5,67.6,52.6,67.6z M48.5,59c0.4,0,0.8,0.3,0.9,0.6c0.6,1.6,1.5,3.3,2.7,5.2c0.1,0.1,0.2,0.3,0.2,0.3
		c0.1-0.3,0.1-0.9,0.1-1.7c0-1.5,0.3-2.9,1-4.3c0.2-0.4,0.7-0.7,1.2-0.5c1.6,0.4,3,0.3,4.5-0.3c0.4-0.2,0.8,0,1.1,0.3
		c0.6,0.7,1.5,1.1,2.3,1.1c1,0,1.8-0.4,2.4-1.2c0.3-0.4,0.7-0.5,1.2-0.3c0.9,0.3,1.7,0.5,2.6,0.5c2.8,0,5.3-1.6,6.5-4.2
		c0.1-0.3,0.4-0.5,0.8-0.6c2.4-0.3,4.1-2.3,4.1-4.7c0-0.2,0-0.3,0-0.5c0-0.3,0.1-0.7,0.4-0.9c1.6-1.4,2.6-3.4,2.6-5.5
		c0-2.5-1.3-4.8-3.5-6.2c-0.3-0.2-0.4-0.4-0.5-0.8c-0.2-1.6-1.5-2.8-3.1-2.8c-0.2,0-0.3,0-0.6,0.1c-0.4,0.1-0.8-0.1-1-0.4
		c-1.8-2.4-4.6-3.8-7.6-3.8c-1.4,0-2.8,0.3-4,0.9c-0.3,0.1-0.7,0.1-0.9-0.1c-1.7-1.1-4.1-0.9-5.6,0.5c-0.2,0.2-0.5,0.3-0.8,0.2
		c-0.4-0.1-0.7-0.1-1.1-0.1c-3.4,0-6.2,2.3-7,5.6c-0.1,0.5-0.6,0.8-1.1,0.8c-0.4-0.1-0.7-0.1-1-0.1c-4,0-7.2,3.2-7.2,7.2
		c0,2,0.8,3.9,2.3,5.2c0.3,0.3,0.4,0.7,0.3,1c-0.2,0.7-0.3,1.4-0.3,2.1c0,4,3.2,7.2,7.2,7.2c0.3,0,0.6,0,0.8-0.1
		C48.4,59,48.4,59,48.5,59z"/>
	<path class="st5" d="M37.9,64c-0.3,0-0.6-0.1-0.8-0.4c-4.7-5.4-4-14.3-4-14.7c0.1-0.6,0.6-1,1.1-0.9c0.6,0,1,0.5,1,1.1
		c0,0.1-0.7,8.4,3.5,13.2c0.4,0.4,0.3,1.1-0.1,1.5C38.4,63.9,38.2,64,37.9,64z"/>
</g>
</svg>
