<?xml version="1.0" encoding="utf-8"?>
<!-- Generator: Adobe Illustrator 21.0.2, SVG Export Plug-In . SVG Version: 6.00 Build 0)  -->
<svg version="1.1" id="camping" xmlns="http://www.w3.org/2000/svg" xmlns:xlink="http://www.w3.org/1999/xlink" x="0px" y="0px"
	 viewBox="0 0 128 128" style="enable-background:new 0 0 128 128;" xml:space="preserve">
<style type="text/css">
	.st0{fill:#28A5C6;}
	.st1{fill:#178099;}
	.st2{fill:#074370;}
	.st3{opacity:0.5;fill:#FFFFFF;}
	.st4{fill:#75B600;}
	.st5{fill:#5C8E0D;}
	.st6{fill:#446307;}
	.st7{fill:#FBD000;}
	.st8{fill:#F74541;}
	.st9{fill:#F99900;}
</style>
<g>
	<path class="st0" d="M128,64c0,35.3-30.1,64-64,64C28.7,128,0,99.3,0,64S28.7,0,64,0S128,28.7,128,64z"/>
	<ellipse class="st1" cx="42.9" cy="52.9" rx="15.9" ry="24.4"/>
	<path class="st2" d="M43,78.4c-9.4,0-17-11.5-17-25.7C26,38.5,33.6,27,43,27c9.4,0,17,11.5,17,25.7C60,66.8,52.4,78.4,43,78.4z
		 M43,29c-8.3,0-15,10.6-15,23.7c0,13,6.7,23.7,15,23.7c8.3,0,15-10.6,15-23.7C58,39.6,51.3,29,43,29z"/>
	<path class="st2" d="M43,97.5c-0.6,0-1-0.4-1-1V48c0-0.5,0.4-1,1-1c0.6,0,1,0.4,1,1v48.5C44,97,43.6,97.5,43,97.5z"/>
	<path class="st2" d="M44,63c-0.2,0-0.5-0.1-0.7-0.3c-0.4-0.4-0.4-1,0-1.4l6.1-6.1c0.4-0.4,1-0.4,1.4,0c0.4,0.4,0.4,1,0,1.4
		l-6.1,6.1C44.4,62.9,44.2,63,44,63z"/>
	<path class="st1" d="M11.8,104.5c-4.3,0-5.8-2.9-3.3-6.4l16.4-23.2c2.5-3.5,6.5-3.5,9,0l16.4,23.2c2.5,3.5,1,6.4-3.3,6.4H11.8z"/>
	<path class="st2" d="M46.6,106h-35c-2.5,0-4.4-0.9-5.2-2.5c-0.8-1.6-0.5-3.6,0.9-5.7l16.3-23.3c1.4-2,3.3-3.1,5.4-3.1
		s4,1.1,5.4,3.1l16.3,23.3c1.4,2.1,1.8,4.1,0.9,5.7C51,105.1,49.2,106,46.6,106z M29.2,73.4c-1.4,0-2.7,0.8-3.8,2.3L9.1,99
		c-1,1.4-1.3,2.7-0.8,3.6c0.5,0.9,1.7,1.4,3.4,1.4h35c1.7,0,3-0.5,3.4-1.4c0.5-0.9,0.2-2.2-0.8-3.6L32.9,75.7
		C31.9,74.2,30.6,73.4,29.2,73.4z"/>
	<path class="st1" d="M17.3,88.3c-4.3,0-5.8-2.9-3.3-6.4l10.9-15.4c2.5-3.5,6.5-3.5,9,0L44.7,82c2.5,3.5,1,6.4-3.3,6.4H17.3z"/>
	<path class="st2" d="M41.4,90H17.6c-2.5,0-4.4-0.9-5.2-2.5c-0.8-1.6-0.5-3.6,0.9-5.7l10.8-15.6c1.4-2,3.3-3.1,5.4-3.1
		c2.1,0,4,1.1,5.4,3.1l10.8,15.6c1.4,2.1,1.8,4.1,0.9,5.7C45.7,89.1,43.9,90,41.4,90z M29.5,65.1c-1.4,0-2.7,0.8-3.7,2.3L15,83
		c-1,1.4-1.3,2.7-0.8,3.6c0.5,0.9,1.7,1.4,3.4,1.4h23.7c1.7,0,3-0.5,3.4-1.4c0.5-0.9,0.2-2.2-0.8-3.6L33.2,67.3
		C32.2,65.9,30.9,65.1,29.5,65.1z"/>
	<path class="st1" d="M21,73c-4.3,0-5.8-2.9-3.3-6.4l7.1-10.1c2.5-3.5,6.5-3.5,9,0l7.1,10.1c2.5,3.5,1,6.4-3.3,6.4H21z"/>
	<path class="st2" d="M37.5,74H21.5c-2.5,0-4.3-0.9-5.1-2.5c-0.8-1.6-0.5-3.6,1-5.7l6.8-9.7c1.4-2,3.3-3.1,5.3-3.1s3.9,1.1,5.3,3.1
		l6.8,9.7c1.4,2.1,1.8,4.1,1,5.7C41.8,73.1,39.9,74,37.5,74z M29.5,55c-1.4,0-2.7,0.8-3.7,2.3L19,67.1c-1,1.4-1.3,2.7-0.8,3.6
		c0.4,0.9,1.7,1.4,3.4,1.4h15.9c1.7,0,2.9-0.5,3.4-1.4c0.4-0.9,0.1-2.2-0.8-3.6l-6.8-9.7C32.2,55.9,30.9,55,29.5,55z"/>
	<path class="st3" d="M35.7,67.4c-0.3,0-0.6-0.1-0.8-0.4l-5-6c-0.4-0.4-0.3-1.1,0.1-1.4c0.4-0.4,1.1-0.3,1.4,0.1l5,6
		c0.4,0.4,0.3,1.1-0.1,1.4C36.1,67.3,35.9,67.4,35.7,67.4z"/>
	<path class="st1" d="M68.7,90.4c-5.5,0-7.4-3.7-4.3-8.2l21.1-29.9c3.2-4.5,8.4-4.5,11.6,0l21.1,29.9c3.2,4.5,1.3,8.2-4.3,8.2H68.7z
		"/>
	<path class="st2" d="M116.4,91H66.6c-2.5,0-4.4-0.9-5.2-2.5c-0.8-1.6-0.5-3.6,1-5.6L86,50c1.4-2,3.4-3.1,5.5-3.1
		c2.1,0,4.1,1.1,5.5,3.1l23.6,32.9c1.5,2.1,1.8,4.1,1,5.6C120.7,90.1,118.9,91,116.4,91z M91.5,48.9c-1.4,0-2.8,0.8-3.8,2.3
		L64.1,84.1c-1,1.4-1.3,2.7-0.9,3.6c0.5,0.9,1.7,1.4,3.4,1.4h49.7c1.7,0,3-0.5,3.4-1.4c0.5-0.9,0.1-2.2-0.9-3.6L95.3,51.1
		C94.3,49.7,92.9,48.9,91.5,48.9z"/>
	<path class="st1" d="M75.7,69.5c-5.5,0-7.4-3.7-4.3-8.2l14-19.9c3.2-4.5,8.4-4.5,11.6,0l14,19.9c3.2,4.5,1.3,8.2-4.3,8.2H75.7z"/>
	<path class="st2" d="M109.3,71H73.7c-2.5,0-4.4-0.9-5.2-2.5c-0.8-1.6-0.5-3.6,1-5.7l16.6-23.7c1.4-2,3.4-3.1,5.4-3.1
		c2.1,0,4,1.1,5.4,3.1l16.6,23.7c1.5,2.1,1.8,4.1,1,5.7C113.7,70.1,111.8,71,109.3,71z M91.5,38.1c-1.4,0-2.8,0.8-3.8,2.3L71.1,64
		c-1,1.4-1.3,2.7-0.8,3.6c0.5,0.9,1.7,1.4,3.5,1.4h35.6c1.7,0,3-0.5,3.5-1.4c0.5-0.9,0.2-2.2-0.8-3.6L95.3,40.3
		C94.3,38.9,92.9,38.1,91.5,38.1z"/>
	<path class="st1" d="M80.6,49.8c-5.5,0-7.4-3.7-4.3-8.2l9.2-13c3.2-4.5,8.4-4.5,11.6,0l9.2,13c3.2,4.5,1.3,8.2-4.3,8.2H80.6z"/>
	<path class="st2" d="M104.3,51H78.7c-2.5,0-4.4-0.9-5.2-2.5c-0.8-1.6-0.5-3.6,1-5.7l11.7-16.7c1.4-2,3.4-3.2,5.4-3.2
		c2.1,0,4,1.1,5.4,3.2l11.7,16.7c1.5,2.1,1.8,4.1,1,5.7C108.7,50.1,106.9,51,104.3,51z M91.5,25c-1.4,0-2.8,0.8-3.8,2.3L76.1,44
		c-1,1.4-1.3,2.7-0.8,3.6c0.5,0.9,1.7,1.4,3.4,1.4h25.7c1.7,0,3-0.5,3.4-1.4c0.5-0.9,0.2-2.2-0.8-3.6L95.3,27.3
		C94.3,25.8,92.9,25,91.5,25z"/>
	<path class="st4" d="M28.8,97l31-46.1c3-5.3,8-5.3,11.1,0l31,46.1l0.1,7.5H28.8L28.8,97z"/>
	<polygon class="st5" points="44,103.5 33,98.5 64,50.5 	"/>
	<polyline class="st4" points="45.7,103.6 39.1,97 64.4,47.5 	"/>
	<path class="st2" d="M102,106H29c-0.6,0-1-0.4-1-1v-8c0-0.2,0.1-0.4,0.2-0.6l30.7-46.1c1.6-2.8,3.9-4.4,6.4-4.4
		c2.5,0,4.7,1.6,6.4,4.5l31.1,46c0.1,0.2,0.2,0.4,0.2,0.6v8C103,105.6,102.6,106,102,106z M30,104h71v-6.7L70,51.5
		c-1.3-2.3-3-3.5-4.7-3.5c-1.7,0-3.4,1.2-4.7,3.5L30,97.3V104z"/>
	<polygon class="st6" points="65.3,47.5 45.7,104.5 73.7,104.5 	"/>
	<path class="st2" d="M45.7,106c-0.1,0-0.2,0-0.3-0.1c-0.5-0.2-0.8-0.7-0.6-1.3l19.6-57.5c0.1-0.4,0.6-0.7,1-0.7
		c0.5,0,0.8,0.4,0.9,0.9l8.4,57.5c0.1,0.5-0.3,1.1-0.8,1.1c-0.5,0.1-1.1-0.3-1.1-0.8l-7.8-53.4l-18.3,53.6
		C46.5,105.7,46.1,106,45.7,106z"/>
	<path class="st2" d="M45.6,104.6c-0.3,0-0.5-0.1-0.7-0.3l-6.6-6.5c-0.3-0.3-0.4-0.8-0.2-1.2L63.5,47c0.3-0.5,0.9-0.7,1.4-0.4
		c0.5,0.3,0.7,0.9,0.4,1.3l-25,48.9l6.1,6c0.4,0.4,0.4,1,0,1.4C46.1,104.5,45.8,104.6,45.6,104.6z"/>
	<path class="st2" d="M118.8,106H11.2c-0.6,0-1-0.4-1-1s0.4-1,1-1h107.5c0.6,0,1,0.4,1,1S119.3,106,118.8,106z"/>
	<path class="st2" d="M19.5,105c-0.3,0-0.6-0.1-0.7-0.3c-0.4-0.4-0.3-1,0.1-1.3l8.4-7.1c0.4-0.3,1-0.3,1.4,0.1
		c0.4,0.4,0.3,1-0.1,1.3l-8.4,7.1C20,104.9,19.7,105,19.5,105z"/>
	<path class="st2" d="M19.6,104.6c-0.3,0-0.7-0.2-0.8-0.6l-2.6-5.6c-0.2-0.5,0-1.1,0.4-1.3c0.5-0.2,1,0,1.3,0.4l2.6,5.6
		c0.2,0.5,0,1.1-0.4,1.3C19.8,104.5,19.7,104.6,19.6,104.6z"/>
	<path class="st2" d="M110.2,105.5c-0.2,0-0.5-0.1-0.7-0.3l-8.4-7.5c-0.4-0.4-0.5-1-0.1-1.4c0.4-0.4,1-0.5,1.4-0.1l8.4,7.5
		c0.4,0.4,0.5,1,0.1,1.4C110.7,105.4,110.5,105.5,110.2,105.5z"/>
	<path class="st2" d="M110,105c-0.2,0-0.3,0-0.5-0.1c-0.5-0.3-0.7-0.9-0.5-1.4l2.9-5.9c0.3-0.5,0.9-0.7,1.4-0.5
		c0.5,0.3,0.7,0.9,0.5,1.4l-2.9,5.9C110.8,104.8,110.4,105,110,105z"/>
	<path class="st3" d="M96,96c-0.3,0-0.6-0.1-0.8-0.4l-15-21.1c-0.3-0.4-0.2-1,0.2-1.3c0.4-0.3,1.1-0.2,1.4,0.2l15,21.1
		c0.3,0.4,0.2,1-0.2,1.3C96.4,95.9,96.2,96,96,96z"/>
	<path class="st3" d="M76.9,69c-0.3,0-0.7-0.1-0.9-0.4l-5.9-8c-0.3-0.5-0.2-1.1,0.3-1.4c0.5-0.3,1.1-0.2,1.5,0.3l5.9,8
		c0.3,0.5,0.2,1.1-0.3,1.4C77.4,68.9,77.1,69,76.9,69z"/>
	<path class="st3" d="M102,43c-0.3,0-0.6-0.1-0.8-0.4l-9-12c-0.3-0.4-0.2-1.1,0.2-1.4c0.4-0.3,1.1-0.2,1.4,0.2l9,12
		c0.3,0.4,0.2,1.1-0.2,1.4C102.4,42.9,102.2,43,102,43z"/>
	<path class="st3" d="M108,65c-0.3,0-0.6-0.1-0.8-0.4l-7-10c-0.3-0.5-0.2-1.1,0.2-1.4c0.5-0.3,1.1-0.2,1.4,0.2l7,10
		c0.3,0.5,0.2,1.1-0.2,1.4C108.4,64.9,108.2,65,108,65z"/>
	<path class="st3" d="M115,85.5c-0.3,0-0.6-0.1-0.8-0.4l-7-10c-0.3-0.5-0.2-1.1,0.2-1.4c0.5-0.3,1.1-0.2,1.4,0.2l7,10
		c0.3,0.5,0.2,1.1-0.2,1.4C115.4,85.4,115.2,85.5,115,85.5z"/>
	<path class="st7" d="M66.4,22.8c-3.8,1.3-8-0.6-9.3-4.3c-1.4-3.7,0.6-7.7,4.4-9C62.5,9.2,64,8.9,65,9c-1.4-0.7-3-1-5-1
		c-1.2,0-2.3,0.2-3.4,0.5c-5.1,1.8-7.8,7.2-6,12.2c1.8,5,7.5,7.5,12.6,5.8c2.7-0.9,4.7-3.1,5.8-5.5C68.3,21.7,67.4,22.4,66.4,22.8z"
		/>
	<path class="st3" d="M27.3,27.6c0-0.4-0.4-0.8-1-0.9l-1.9-0.3c-0.5-0.1-1.1-0.6-1.1-1.1L23,23.5c-0.1-0.5-0.5-1-0.9-1
		c-0.4,0-0.8,0.4-0.9,1L21,25.3c-0.1,0.5-0.6,1.1-1.1,1.1L18,26.8c-0.5,0.1-1,0.5-1,0.9s0.4,0.8,1,0.9l1.9,0.3
		c0.5,0.1,1.1,0.6,1.1,1.1l0.3,1.9c0.1,0.5,0.5,1,0.9,1c0.4,0,0.8-0.4,0.9-1l0.3-2.1c0.1-0.5,0.6-1,1.1-1.1l1.8-0.1
		C26.8,28.4,27.3,28,27.3,27.6z"/>
	<path class="st3" d="M73.3,35.6c0-0.4-0.4-0.8-1-0.9l-1.9-0.3c-0.5-0.1-1.1-0.6-1.1-1.1L69,31.5c-0.1-0.5-0.5-1-0.9-1
		c-0.4,0-0.8,0.4-0.9,1L67,33.3c-0.1,0.5-0.6,1.1-1.1,1.1L64,34.8c-0.5,0.1-1,0.5-1,0.9c0,0.4,0.4,0.8,1,0.9l1.9,0.3
		c0.5,0.1,1.1,0.6,1.1,1.1l0.3,1.9c0.1,0.5,0.5,1,0.9,1c0.4,0,0.8-0.4,0.9-1l0.3-2.1c0.1-0.5,0.6-1,1.1-1.1l1.8-0.1
		C72.8,36.4,73.3,36,73.3,35.6z"/>
	<path class="st3" d="M123.3,54.6c0-0.4-0.4-0.8-1-0.9l-1.9-0.3c-0.5-0.1-1.1-0.6-1.1-1.1l-0.3-1.9c-0.1-0.5-0.5-1-0.9-1
		c-0.4,0-0.8,0.4-0.9,1l-0.3,1.9c-0.1,0.5-0.6,1.1-1.1,1.1l-1.9,0.3c-0.5,0.1-1,0.5-1,0.9c0,0.4,0.4,0.8,1,0.9l1.9,0.3
		c0.5,0.1,1.1,0.6,1.1,1.1l0.3,1.9c0.1,0.5,0.5,1,0.9,1c0.4,0,0.8-0.4,0.9-1l0.3-2.1c0.1-0.5,0.6-1,1.1-1.1l1.8-0.1
		C122.8,55.4,123.3,55,123.3,54.6z"/>
	<path class="st3" d="M61.3,114.6c0-0.4-0.4-0.8-1-0.9l-1.9-0.3c-0.5-0.1-1.1-0.6-1.1-1.1l-0.3-1.9c-0.1-0.5-0.5-1-0.9-1
		c-0.4,0-0.8,0.4-0.9,1l-0.3,1.9c-0.1,0.5-0.6,1.1-1.1,1.1l-1.9,0.3c-0.5,0.1-1,0.5-1,0.9s0.4,0.8,1,0.9l1.9,0.3
		c0.5,0.1,1.1,0.6,1.1,1.1l0.3,1.9c0.1,0.5,0.5,1,0.9,1c0.4,0,0.8-0.4,0.9-1l0.3-2.1c0.1-0.5,0.6-1,1.1-1.1l1.8-0.1
		C60.8,115.4,61.3,115,61.3,114.6z"/>
	<path class="st3" d="M82,17c-2.2,0-4-1.8-4-4c0-2.2,1.8-4,4-4c2.2,0,4,1.8,4,4C86,15.2,84.2,17,82,17z M82,11c-1.1,0-2,0.9-2,2
		c0,1.1,0.9,2,2,2c1.1,0,2-0.9,2-2C84,11.9,83.1,11,82,11z"/>
	<path class="st3" d="M79,118c-2.2,0-4-1.8-4-4c0-2.2,1.8-4,4-4c2.2,0,4,1.8,4,4C83,116.2,81.2,118,79,118z M79,112
		c-1.1,0-2,0.9-2,2c0,1.1,0.9,2,2,2c1.1,0,2-0.9,2-2C81,112.9,80.1,112,79,112z"/>
	<path class="st3" d="M15,52c-2.2,0-4-1.8-4-4c0-2.2,1.8-4,4-4c2.2,0,4,1.8,4,4C19,50.2,17.2,52,15,52z M15,46c-1.1,0-2,0.9-2,2
		c0,1.1,0.9,2,2,2c1.1,0,2-0.9,2-2C17,46.9,16.1,46,15,46z"/>
	<path class="st3" d="M53,48c-0.6,0-1-0.4-1-0.9c0-8.7-9.4-13.2-9.4-13.3c-0.5-0.2-0.7-0.8-0.4-1.3c0.2-0.5,0.8-0.7,1.3-0.4
		c0.4,0.2,10.6,5.1,10.6,15C54,47.6,53.6,48,53,48z"/>
	<path class="st8" d="M91.4,97.9c0-5.5-6.7-10.1-6.7-10.1S78,92.4,78,97.9c0,3.3,3,6.6,6.7,6.6C88.4,104.5,91.4,101.2,91.4,97.9z"/>
	<path class="st9" d="M89,100.4c0-3.5-4.5-6.4-4.5-6.4s-4.5,2.9-4.5,6.4c0,2.1,2,4.1,4.5,4.1C87,104.5,89,102.4,89,100.4z"/>
	<path class="st2" d="M84.5,105.5c-4,0-7.5-3.5-7.5-7.5c0-5.9,6.7-10.6,6.9-10.8c0.3-0.2,0.8-0.2,1.1,0C85.3,87.4,92,92.1,92,98
		C92,102,88.5,105.5,84.5,105.5z M84.5,89.2C83,90.4,78.9,94,78.9,98c0,2.6,2.4,5.5,5.6,5.5c3.2,0,5.6-2.9,5.6-5.5
		C90.1,94,86,90.4,84.5,89.2z"/>
</g>
</svg>
