<?xml version="1.0" encoding="utf-8"?>
<!-- Generator: Adobe Illustrator 21.0.2, SVG Export Plug-In . SVG Version: 6.00 Build 0)  -->
<svg version="1.1" id="coffee" xmlns="http://www.w3.org/2000/svg" xmlns:xlink="http://www.w3.org/1999/xlink" x="0px" y="0px"
	 viewBox="0 0 128 128" style="enable-background:new 0 0 128 128;" xml:space="preserve">
<style type="text/css">
	.st0{fill:#A7FCD0;}
	.st1{opacity:0.5;fill:#FFFFFF;}
	.st2{fill:#105B4C;}
	.st3{fill:#EAEAEA;}
	.st4{fill:#D4D6D6;}
	.st5{fill:#3DB39E;}
	.st6{fill:#EAEEEE;}
	.st7{fill:#328474;}
	.st8{fill:#FFFFFF;}
</style>
<g>
	<circle class="st0" cx="64" cy="64" r="64"/>
	<path class="st1" d="M76.1,9.1H64.8c-2.8,0-4.8-2.3-4.8-5c0-1.9,1-3.4,2.6-4.2c-9.3,0.2-18.2,2.4-26.1,6.1
		c-0.1,0.1-0.3,0.1-0.4,0.2c-0.4,0.2-0.7,0.4-1.1,0.6c0.9,1.5,2.5,3.3,4.3,3.3h12.7c2.8,0,4.9,2.3,4.9,5c0,2.7-2.1,5-4.6,5
		c-2.6,0-4.7,1.9-4.7,4.5c0,2.6,2.2,4.4,5,4.4H60c2.8,0,5-1.2,5-4c0-2.7,2.3-6,5-6h6.1c2.8,0,4.9-2.5,4.9-5
		C81,11.7,78.9,9.1,76.1,9.1z"/>
	<path class="st2" d="M100,107h-6c-0.6,0-1-0.4-1-1s0.5-1,1-1h6c0.6,0,1,0.4,1,1S100.5,107,100,107z"/>
	<polygon class="st3" points="41,46.7 87,46.7 80.3,105 47.8,105 	"/>
	<polygon class="st4" points="42.2,52 85.8,52 86.4,46.7 41.7,46.7 	"/>
	<polygon class="st4" points="82,94.1 82.8,88.1 45.3,88.1 46,94.1 	"/>
	<path class="st5" d="M40.2,59.8h47.6l-3.6,28.9H43.9L40.2,59.8z"/>
	<path class="st6" d="M64,66c-4.4,0-8,3.6-8,8c0,4.4,3.6,8,8,8c4.4,0,8-3.6,8-8C72,69.6,68.4,66,64,66z"/>
	<path class="st7" d="M48.2,28h31.6c1.5,0,2,1.6,2.6,2.9l2.6,5.3c0,1.5-1.2,2.6-2.6,2.6H45.6c-1.5,0-2.6-1.2-2.6-2.6l2.6-5.3
		C46.3,29.7,46.8,28,48.2,28z"/>
	<path class="st7" d="M39,36h50c1.5,0,3,1.4,3,2.8v5.3c0,1.5-1.5,2.9-3,2.9H39c-1.4,0-3-1.6-3-2v-6.2C36,37.4,37.6,36,39,36z"/>
	<path class="st1" d="M87,41H58c-0.6,0-1-0.4-1-1s0.5-1,1-1h29c0.6,0,1,0.4,1,1S87.5,41,87,41z"/>
	<path class="st1" d="M78,33H71c-0.6,0-1-0.4-1-1s0.5-1,1-1H78c0.6,0,1,0.4,1,1S78.5,33,78,33z"/>
	<path class="st8" d="M23.6,59.1c0-0.4-0.4-0.8-1-0.9L20.8,58c-0.5-0.1-1.1-0.6-1.1-1.1L19.3,55c-0.1-0.5-0.5-1-0.9-1
		s-0.8,0.4-0.9,1l-0.3,1.9c-0.1,0.5-0.6,1.1-1.1,1.1l-1.9,0.3c-0.5,0.1-1,0.5-1,0.9c0,0.4,0.4,0.8,1,0.9l1.9,0.3
		c0.5,0.1,1.1,0.6,1.1,1.1l0.3,1.9c0.1,0.5,0.5,1,0.9,1s0.8-0.4,0.9-1l0.3-2.1c0.1-0.5,0.6-1,1.1-1.1l1.8-0.1
		C23.2,59.9,23.6,59.5,23.6,59.1z"/>
	<path class="st8" d="M103,52c-2.2,0-4-1.8-4-4c0-2.2,1.8-4,4-4c2.2,0,4,1.8,4,4C107,50.2,105.2,52,103,52z M103,45.9
		c-1.2,0-2.1,1-2.1,2.1c0,1.2,1,2.1,2.1,2.1c1.2,0,2.1-1,2.1-2.1C105.1,46.8,104.2,45.9,103,45.9z"/>
	<path class="st8" d="M30,88c-2.2,0-4-1.8-4-4c0-2.2,1.8-4,4-4c2.2,0,4,1.8,4,4C34,86.2,32.2,88,30,88z M30,81.9
		c-1.2,0-2.1,1-2.1,2.1c0,1.2,1,2.1,2.1,2.1c1.2,0,2.1-1,2.1-2.1C32.1,82.8,31.2,81.9,30,81.9z"/>
	<path class="st1" d="M79.9,84c0,0-0.1,0-0.1,0c-0.5-0.1-0.8-0.6-0.8-1.1l2.2-18c0.1-0.6,0.5-0.9,1-0.9c0.5,0.1,0.8,0.6,0.8,1.1
		l-2.2,18C80.7,83.6,80.4,84,79.9,84z"/>
	<path class="st2" d="M89,35h-3c0,0-4.3-8-6.2-8H48.2c-1.8,0-6.2,8-6.2,8h-3c-2.1,0-4,1.9-4,3.8V45c0,1.1,2.3,3,4,3h1l1,11h-0.8
		C40,59,39,59,39,61l4,28c0.1,0.5,0.5,1,1,1h1.1l1.9,15H31.9c-0.6,0-1,0.4-1,1s0.4,1,1,1H87c0.6,0,1-0.4,1-1s-0.4-1-1-1h-6l2-15h1
		c0.5,0,0.9-0.5,1-1l4-28c0-2-0.9-2-1.2-2H87l1-11h1c2,0,4-1.9,4-3.9v-5.3C93,36.9,91.1,35,89,35z M49,29h30c0.5,0,4,6,4,6H45
		C45,35,48.5,29,49,29z M49,105l-1.9-15H81l-2,15H49z M87,61l-3.7,27H44.8l-3.4-27H87z M42,48h44l-1,11H43L42,48z M91,44.1
		c0,0.9-1.1,1.9-2,1.9H39c-0.8,0-1.7-0.8-2-1.2v-6c0-0.8,1.1-1.8,2-1.8h50c1,0,2,0.9,2,1.8V44.1z"/>
</g>
</svg>
