<?xml version="1.0" encoding="utf-8"?>
<!-- Generator: Adobe Illustrator 21.0.2, SVG Export Plug-In . SVG Version: 6.00 Build 0)  -->
<svg version="1.1" id="desert" xmlns="http://www.w3.org/2000/svg" xmlns:xlink="http://www.w3.org/1999/xlink" x="0px" y="0px"
	 viewBox="0 0 128 128" style="enable-background:new 0 0 128 128;" xml:space="preserve">
<style type="text/css">
	.st0{fill:#FC8BA4;}
	.st1{fill:#F99900;}
	.st2{fill:#415E6D;}
	.st3{opacity:0.5;fill:#FFFFFF;}
	.st4{fill:#FFFFFF;}
	.st5{fill:#FBD000;}
	.st6{fill:#46600E;}
	.st7{fill:#AD5114;}
	.st8{fill:#663210;}
	.st9{fill:#75B600;}
</style>
<g>
	<circle class="st0" cx="64" cy="64" r="64"/>
	<path class="st1" d="M0,66.1C1.1,100.5,29.3,128,64,128s62.8-27.5,63.9-61.9H0z"/>
	<path class="st2" d="M64.1,128c11.2,0,21.8-2.9,30.9-8L72.2,66.3H55.9L33.1,120C42.3,125.1,52.8,128,64.1,128z"/>
	<path class="st3" d="M64,124c-0.6,0-1-0.4-1-1v-2c0-0.6,0.4-1,1-1s1,0.4,1,1v2C65,123.6,64.6,124,64,124z"/>
	<path class="st3" d="M64,118c-0.6,0-1-0.4-1-1v-4c0-0.6,0.4-1,1-1s1,0.4,1,1v4C65,117.6,64.6,118,64,118z M64,110.1
		c-0.6,0-1-0.4-1-1v-4c0-0.6,0.4-1,1-1s1,0.4,1,1v4C65,109.6,64.6,110.1,64,110.1z M64,102.1c-0.6,0-1-0.4-1-1v-4c0-0.6,0.4-1,1-1
		s1,0.4,1,1v4C65,101.6,64.6,102.1,64,102.1z M64,94.1c-0.6,0-1-0.4-1-1v-4c0-0.6,0.4-1,1-1s1,0.4,1,1v4C65,93.7,64.6,94.1,64,94.1z
		 M64,86.2c-0.6,0-1-0.4-1-1v-4c0-0.6,0.4-1,1-1s1,0.4,1,1v4C65,85.7,64.6,86.2,64,86.2z M64,78.2c-0.6,0-1-0.4-1-1v-4
		c0-0.6,0.4-1,1-1s1,0.4,1,1v4C65,77.8,64.6,78.2,64,78.2z"/>
	<path class="st3" d="M64,70.2c-0.6,0-1-0.4-1-1v-2c0-0.6,0.4-1,1-1s1,0.4,1,1v2C65,69.8,64.6,70.2,64,70.2z"/>
	<path class="st4" d="M43,46c0-1.1-1.6-2-3.2-2H25.8c-1.7,0-2.8,0.9-2.8,2c0,1.1-1.6,2-3,2c-1.4,0-2,0.9-2,2c0,1.1,1.1,2,2.8,2h10
		c1.7,0,3.2-0.9,3.2-2c0-1.1,1.3-2,3-2h3C41.7,48,43,47.1,43,46z"/>
	<path class="st4" d="M86,22c0-1.1-1.1-1-2.3-1h-1.9c-1.2,0-2.8-1-2.8-2c0-1-0.5-2-1.7-2h-13c-1.2,0-2.3,1-2.3,2c0,1-0.8,1-2,1h-2
		c-1.2,0-3,0.9-3,2c0,1.1,1.3,2,2.5,2h6.4c1.2,0,2.1,1.1,2.1,2s-0.8,1-2.1,1h-1.1c-1.2,0-1.8,0.9-1.8,2c0,1.1,0.6,2,1.8,2H69
		c1.2,0,2-1,2-2c0-1,1.3-1,2.5-1h0.8c1.2,0,1.7-1,1.7-2c0-1,1.6-2,2.8-2h4.9C84.9,24,86,23.1,86,22z"/>
	<circle class="st5" cx="22" cy="21" r="9"/>
	<path class="st6" d="M26,94c-1.1,0-2-0.9-2-2V79c0-1.1,0.9-2,2-2s2,0.9,2,2v13C28,93.1,27.1,94,26,94z"/>
	<path class="st6" d="M31,89h-4.9c-1.1,0-2-0.9-2-2s0.9-2,2-2H29v-1.2c0-1.1,0.9-1.8,2-1.8s2,0.6,2,1.8V87C33,88.1,32.1,89,31,89z"
		/>
	<path class="st6" d="M103,90c-1.1,0-2-0.9-2-2v-7.8c0-1.1,0.9-2.2,2-2.2s2,1.1,2,2.2V88C105,89.1,104.1,90,103,90z"/>
	<path class="st7" d="M128,64c0-8.1-1.5-15.9-4.3-23H93L80.8,66.1l47.1,0.2C127.9,65.6,128,64.8,128,64z"/>
	<path class="st8" d="M34,120.6l22.7-53.5c0.2-0.5,0-1.1-0.5-1.3c-0.5-0.2-1.1,0-1.3,0.5l-22.6,53.3C32.9,120,33.4,120.3,34,120.6z"
		/>
	<path class="st8" d="M73,66.4c-0.2-0.5-0.8-0.7-1.3-0.5c-0.5,0.2-0.7,0.8-0.5,1.3l22.7,53.5c0.6-0.3,1.2-0.6,1.8-1L73,66.4z"/>
	<path class="st8" d="M0.1,67h127.8c0-0.7,0-1.3,0.1-2H0C0,65.7,0,66.3,0.1,67z"/>
	<path class="st3" d="M121.8,72h-41c-0.6,0-1-0.4-1-1s0.4-1,1-1h41c0.6,0,1,0.4,1,1S122.3,72,121.8,72z"/>
	<path class="st3" d="M47.8,72h-41c-0.6,0-1-0.4-1-1s0.4-1,1-1h41c0.6,0,1,0.4,1,1S48.3,72,47.8,72z"/>
	<path class="st3" d="M88.8,119c-0.4,0-0.8-0.2-0.9-0.6L76.2,89.5c-0.2-0.5,0-1.1,0.6-1.3c0.5-0.2,1.1,0,1.3,0.6l11.6,28.9
		c0.2,0.5,0,1.1-0.6,1.3C89,119,88.9,119,88.8,119z"/>
	<path class="st3" d="M74.8,84.3c-0.4,0-0.8-0.2-0.9-0.6l-4.6-11.3c-0.2-0.5,0-1.1,0.6-1.3c0.5-0.2,1.1,0,1.3,0.6L75.8,83
		c0.2,0.5,0,1.1-0.6,1.3C75.1,84.3,74.9,84.3,74.8,84.3z"/>
	<path class="st9" d="M103,87c-0.6,0-1-0.4-1-1v-5c0-0.6,0.4-1,1-1c0.6,0,1,0.4,1,1v5C104,86.6,103.6,87,103,87z"/>
	<path class="st9" d="M26,93c-0.6,0-1-0.4-1-1V80c0-0.6,0.4-1,1-1c0.6,0,1,0.4,1,1v12C27,92.6,26.6,93,26,93z"/>
	<path class="st9" d="M31,88h-4c-0.6,0-1-0.4-1-1c0-0.6,0.4-1,1-1h3v-2c0-0.6,0.4-1,1-1c0.6,0,1,0.4,1,1v3C32,87.6,31.6,88,31,88z"
		/>
	<path class="st8" d="M123.3,40H93c-0.4,0-0.7,0.2-0.9,0.6L79.9,65.7c-0.2,0.5,0,0.1,0.5,0.3c0.1,0.1,0.3,0,0.4,0
		c0.4,0,0.7,0.9,0.9,0.6l12-24.6h30.4C123.8,41.3,123.6,40.7,123.3,40z"/>
	<path class="st4" d="M108,38c0-1.1-1.2-2-2.8-2H91.2c-1.7,0-3.2,0.9-3.2,2s-0.6,2-2,2c-1.4,0-3,0.9-3,2s1.5,2,3.2,2h10
		c1.7,0,2.8-0.9,2.8-2s1.5-2,3.2-2h3C106.8,40,108,39.1,108,38z"/>
	<path class="st3" d="M45,18c-2.2,0-4-1.8-4-4c0-2.2,1.8-4,4-4c2.2,0,4,1.8,4,4C49,16.2,47.2,18,45,18z M45,11.9
		c-1.2,0-2.1,1-2.1,2.1c0,1.2,1,2.1,2.1,2.1c1.2,0,2.1-1,2.1-2.1C47.1,12.8,46.2,11.9,45,11.9z"/>
	<path class="st3" d="M61.9,50.2c0-0.4-0.4-0.8-1-0.9L59.1,49c-0.5-0.1-1.1-0.6-1.1-1.1L57.7,46c-0.1-0.5-0.5-1-0.9-1
		c-0.4,0-0.8,0.4-0.9,1l-0.3,1.9c-0.1,0.5-0.6,1.1-1.1,1.1l-1.9,0.3c-0.5,0.1-1,0.5-1,0.9c0,0.4,0.4,0.8,1,0.9l1.9,0.3
		c0.5,0.1,1.1,0.6,1.1,1.1l0.3,1.9c0.1,0.5,0.5,1,0.9,1c0.4,0,0.8-0.4,0.8-1l0.3-2.1c0.1-0.5,0.6-1,1.1-1.1l1.8-0.1
		C61.5,50.9,61.9,50.5,61.9,50.2z"/>
</g>
</svg>
