<?xml version="1.0" encoding="utf-8"?>
<!-- Generator: Adobe Illustrator 21.0.2, SVG Export Plug-In . SVG Version: 6.00 Build 0)  -->
<svg version="1.1" id="suitcase" xmlns="http://www.w3.org/2000/svg" xmlns:xlink="http://www.w3.org/1999/xlink" x="0px" y="0px"
	 viewBox="0 0 128 128" style="enable-background:new 0 0 128 128;" xml:space="preserve">
<style type="text/css">
	.st0{fill:#FBD000;}
	.st1{fill:#FFFFFF;}
	.st2{fill:#663210;}
	.st3{fill:#EAEAEA;}
	.st4{fill:#FF4848;}
	.st5{fill:#E8372E;}
	.st6{opacity:0.5;fill:#FFFFFF;}
</style>
<g>
	<circle class="st0" cx="64" cy="64" r="64"/>
	<circle class="st1" cx="83.5" cy="99.3" r="5.3"/>
	<circle class="st1" cx="45.4" cy="99.3" r="5.3"/>
	<path class="st2" d="M118,107H11c-0.5,0-1-0.4-1-1s0.4-1,1-1h107c0.5,0,1,0.4,1,1S118.6,107,118,107z"/>
	<path class="st1" d="M76.8,12.4c0,1.8-1.8,3.3-4,3.3H56.1c-2.2,0-4-1.5-4-3.3c0-1.8,1.8-3.3,4-3.3h16.7C75,9.1,76.8,10.6,76.8,12.4
		z"/>
	<path class="st3" d="M72.8,13.1H56.1c-1.7,0-3.1-0.9-3.7-2.1c-0.2,0.4-0.3,0.8-0.3,1.2c0,1.8,1.8,3.3,4,3.3h16.7c2.2,0,4-1.5,4-3.3
		c0-0.4-0.1-0.9-0.3-1.2C75.9,12.2,74.4,13.1,72.8,13.1z"/>
	<path class="st4" d="M93.1,36.7c0-4.4-3.6-8-8-8H43.8c-4.4,0-8,3.6-8,8V86c0,4.4,3.6,8,8,8h41.3c4.4,0,8-3.6,8-8V36.7z"/>
	<path class="st2" d="M83.5,106c-3.6,0-6.5-2.9-6.5-6.5s2.9-6.5,6.5-6.5c3.6,0,6.5,2.9,6.5,6.5S87.1,106,83.5,106z M83.5,95
		C81,95,79,97,79,99.5c0,2.5,2,4.5,4.5,4.5c2.5,0,4.5-2,4.5-4.5C88,97,86,95,83.5,95z"/>
	<path class="st2" d="M45.5,106c-3.6,0-6.5-2.9-6.5-6.5s2.9-6.5,6.5-6.5c3.6,0,6.5,2.9,6.5,6.5S49.1,106,45.5,106z M45.5,95
		C43,95,41,97,41,99.5c0,2.5,2,4.5,4.5,4.5c2.5,0,4.5-2,4.5-4.5C50,97,48,95,45.5,95z"/>
	<path class="st2" d="M73,17H56c-1.4,0-2.8-0.5-3.7-1.5c-0.8-0.8-1.3-1.9-1.2-3c0-2.5,2.3-4.5,5-4.5H73c2.8,0,5,2,5,4.5
		S75.8,17,73,17z M56.1,10c-1.6,0-3,1.2-3,2.5c0,0.6,0.2,1.1,0.7,1.6c0.6,0.6,1.4,0.9,2.3,0.9h17c1.7,0,3-1.1,3-2.5S74.7,10,73,10
		H56.1z"/>
	<path class="st5" d="M85.1,88H43.8c-4.4,0-8-3.6-8-8v5.8c0,4.4,3.6,8,8,8h41.3c4.4,0,8-3.6,8-8V80C93.1,84.4,89.5,88,85.1,88z"/>
	<path class="st2" d="M56,29.5c-0.6,0-1-0.4-1-1V17c0-0.6,0.4-1,1-1c0.6,0,1,0.4,1,1v11.5C57,29.1,56.6,29.5,56,29.5z"/>
	<path class="st2" d="M73,29.5c-0.6,0-1-0.4-1-1V17c0-0.6,0.4-1,1-1c0.6,0,1,0.4,1,1v11.5C74,29.1,73.6,29.5,73,29.5z"/>
	<path class="st5" d="M81.5,53.9H46.9c-2.2,0-4-1.8-4-4v4.8c0,2.2,1.8,4,4,4h34.7c2.2,0,4-1.8,4-4v-4.8
		C85.5,52.1,83.7,53.9,81.5,53.9z"/>
	<path class="st2" d="M85,94.2c-0.6,0-1-0.4-1-1V69.8c0-2.6-0.6-2.8-1.6-2.8h-36c-1.6,0-3.4,1.1-3.4,2.8v23.4c0,0.6-0.4,1-1,1
		c-0.6,0-1-0.4-1-1V69.8c0-2.9,2.8-4.8,5.4-4.8h36c3.6,0,3.6,3.5,3.6,4.8v23.4C86,93.7,85.6,94.2,85,94.2z"/>
	<path class="st2" d="M81,60H47c-2.8,0-5-2.2-5-5V40c0-2.8,2.2-5,5-5h34c2.8,0,5,2.2,5,5v15C86,57.8,83.8,60,81,60z M47,37
		c-1.7,0-3,1.3-3,3v15c0,1.7,1.3,3,3,3h34c1.7,0,3-1.3,3-3V40c0-1.7-1.3-3-3-3H47z"/>
	<path class="st2" d="M85,95H44c-5,0-9-4-9-9V37c0-5,4-9,9-9h41c5,0,9,4,9,9v49C94,91,90,95,85,95z M44,30c-3.9,0-7,3.1-7,7v49
		c0,3.9,3.1,7,7,7h41c3.9,0,7-3.1,7-7V37c0-3.9-3.1-7-7-7H44z"/>
	<circle class="st3" cx="83.5" cy="99.5" r="2.5"/>
	<circle class="st3" cx="45.5" cy="99.5" r="2.5"/>
	<path class="st6" d="M81,51c-0.6,0-1-0.4-1-1v-8c0-0.6-0.5-1-1-1H66c-0.6,0-1-0.4-1-1s0.4-1,1-1h13c1.7,0,3,1.3,3,3v8
		C82,50.6,81.6,51,81,51z"/>
	<path class="st6" d="M81,85.3c-0.6,0-1-0.4-1-1V72c0-0.6-0.4-1-1-1H49.6c-0.6,0-1-0.4-1-1s0.4-1,1-1H79c1.7,0,3,1.3,3,3v12.3
		C82,84.9,81.6,85.3,81,85.3z"/>
	<path class="st6" d="M59,41h-9c-0.5,0-1-0.4-1-1s0.4-1,1-1h9c0.5,0,1,0.4,1,1S59.6,41,59,41z"/>
	<path class="st6" d="M89,61c-0.6,0-1-0.4-1-1V38c0-2.8-2.2-5-5-5H44c-0.6,0-1-0.4-1-1s0.4-1,1-1h39c3.9,0,7,3.1,7,7v22
		C90,60.6,89.6,61,89,61z"/>
	<path class="st6" d="M89,84c-0.6,0-1-0.4-1-1V67c0-0.6,0.4-1,1-1c0.6,0,1,0.4,1,1v16C90,83.6,89.6,84,89,84z"/>
	<path class="st1" d="M114,60c-2.2,0-4-1.8-4-4c0-2.2,1.8-4,4-4c2.2,0,4,1.8,4,4C118,58.2,116.2,60,114,60z M114,54
		c-1.1,0-2,0.9-2,2c0,1.1,0.9,2,2,2c1.1,0,2-0.9,2-2C116,54.9,115.1,54,114,54z"/>
	<path class="st1" d="M13,60c-2.2,0-4-1.8-4-4c0-2.2,1.8-4,4-4c2.2,0,4,1.8,4,4C17,58.2,15.2,60,13,60z M13,54c-1.1,0-2,0.9-2,2
		c0,1.1,0.9,2,2,2c1.1,0,2-0.9,2-2C15,54.9,14.1,54,13,54z"/>
	<path class="st1" d="M24,92c-2.2,0-4-1.8-4-4c0-2.2,1.8-4,4-4c2.2,0,4,1.8,4,4C28,90.2,26.2,92,24,92z M24,86c-1.1,0-2,0.9-2,2
		c0,1.1,0.9,2,2,2c1.1,0,2-0.9,2-2C26,86.9,25.1,86,24,86z"/>
	<path class="st1" d="M110.3,85.8c0-0.4-0.4-0.8-1-0.9l-1.9-0.3c-0.5-0.1-1.1-0.6-1.1-1.1l-0.3-1.9c-0.1-0.5-0.5-1-0.9-1
		c-0.4,0-0.8,0.4-0.9,1l-0.3,1.9c-0.1,0.5-0.6,1.1-1.1,1.1l-1.9,0.3c-0.5,0.1-1,0.5-1,0.9c0,0.4,0.4,0.8,1,0.9l1.9,0.3
		c0.5,0.1,1.1,0.6,1.1,1.1l0.3,1.9c0.1,0.5,0.5,1,0.9,1c0.4,0,0.8-0.4,0.8-1l0.3-2.1c0.1-0.5,0.6-1,1.1-1.1l1.8-0.1
		C109.9,86.5,110.3,86.2,110.3,85.8z"/>
	<path class="st1" d="M33.9,24.8c0-0.4-0.4-0.8-1-0.9l-1.9-0.3c-0.5-0.1-1.1-0.6-1.1-1.1l-0.3-1.9c-0.1-0.5-0.5-1-0.9-1
		c-0.4,0-0.8,0.4-0.9,1l-0.3,1.9c-0.1,0.5-0.6,1.1-1.1,1.1l-1.9,0.3c-0.5,0.1-1,0.5-1,0.9c0,0.4,0.4,0.8,1,0.9l1.9,0.3
		c0.5,0.1,1.1,0.6,1.1,1.1l0.3,1.9c0.1,0.5,0.5,1,0.9,1c0.4,0,0.8-0.4,0.8-1l0.3-2.1c0.1-0.5,0.6-1,1.1-1.1l1.8-0.1
		C33.5,25.5,33.9,25.2,33.9,24.8z"/>
	<path class="st1" d="M111.4,32.3c0-0.4-0.4-0.8-1-0.9l-1.9-0.3c-0.5-0.1-1.1-0.6-1.1-1.1l-0.3-1.9c-0.1-0.5-0.5-1-0.9-1
		c-0.4,0-0.8,0.4-0.9,1l-0.3,1.9c-0.1,0.5-0.6,1.1-1.1,1.1l-1.9,0.3c-0.5,0.1-1,0.5-1,0.9c0,0.4,0.4,0.8,1,0.9l1.9,0.3
		c0.5,0.1,1.1,0.6,1.1,1.1l0.3,1.9c0.1,0.5,0.5,1,0.9,1c0.4,0,0.8-0.4,0.8-1l0.3-2.1c0.1-0.5,0.6-1,1.1-1.1l1.8-0.1
		C111,33,111.4,32.7,111.4,32.3z"/>
</g>
</svg>
